<svg xmlns="http://www.w3.org/2000/svg" viewBox="0 0 55.562 55.562" height="210" width="210"><path d="M27.782 0A27.781 27.781 0 0 0 0 27.781a27.781 27.781 0 0 0 27.781 27.781 27.781 27.781 0 0 0 27.781-27.78A27.781 27.781 0 0 0 27.782 0zm0 2.04A25.742 25.742 0 0 1 53.524 27.78 25.742 25.742 0 0 1 27.78 53.523 25.742 25.742 0 0 1 2.04 27.781 25.742 25.742 0 0 1 27.782 2.04zm.381 1.026l-2.841.12.015.383 1.193-.05.126 2.977.457-.02-.127-2.977 1.193-.05zm.895.05l-.308 3.348 2.157.198.035-.381-1.704-.157.111-1.213 1.595.147.035-.381-1.594-.147.09-.992 1.665.154.035-.382zm4.36.62a1.448 1.448 0 0 0-.836.234c-.357.233-.599.613-.725 1.139-.126.524-.084.972.128 1.344.212.37.565.616 1.06.734a1.911 1.911 0 0 0 .567.053 1.884 1.884 0 0 0 .55-.118l.11-.462a1.6 1.6 0 0 1-.552.196 1.432 1.432 0 0 1-.56-.028c-.375-.09-.633-.272-.777-.548-.143-.276-.164-.63-.06-1.06.104-.433.282-.74.535-.92.254-.18.568-.227.941-.137.19.046.361.123.512.232.153.11.287.252.403.426l.112-.466a1.777 1.777 0 0 0-.432-.35 1.944 1.944 0 0 0-.533-.211 1.949 1.949 0 0 0-.444-.06zm-11.412.111a1.89 1.89 0 0 0-.503.067l-.994.256.837 3.257.44-.113-.353-1.377.48-.123c.174-.045.32-.045.44 0 .12.046.261.163.425.354l.631.728.474-.122L23.207 6a2.11 2.11 0 0 0-.382-.362.656.656 0 0 0-.327-.134.756.756 0 0 0 .342-.388.88.88 0 0 0 .012-.548c-.081-.313-.233-.525-.456-.633a.938.938 0 0 0-.39-.087zm-.12.394a.541.541 0 0 1 .228.058c.134.068.225.197.274.388.05.19.032.35-.052.476-.082.125-.23.215-.442.27l-.555.142-.296-1.157.554-.142a.982.982 0 0 1 .288-.035zm14.18.254L34.777 7.6l.42.175.615-1.479 1.526.635-.614 1.478.42.175 1.29-3.105-.42-.175-.529 1.273-1.526-.634.529-1.273zm-17.573.473a1.631 1.631 0 0 0-.63.146c-.434.19-.717.486-.85.89-.132.402-.093.847.12 1.334.213.487.512.818.897.994.386.175.796.168 1.23-.02.431-.188.714-.484.846-.886.132-.403.092-.847-.12-1.333-.213-.487-.512-.818-.897-.994a1.365 1.365 0 0 0-.596-.129zm-.039.392a.934.934 0 0 1 .423.117c.276.148.499.417.669.806.17.388.215.734.136 1.037a.941.941 0 0 1-.57.652.952.952 0 0 1-.87-.023c-.277-.148-.5-.416-.67-.804-.17-.39-.215-.736-.136-1.04a.954.954 0 0 1 .574-.653 1.03 1.03 0 0 1 .444-.093zm21.275.787L37.95 9.001l.375.234 1.487-2.387-.222 3.175.52.324 1.778-2.854-.375-.234-1.487 2.388.222-3.176zm-24.167.163l-1.637 1.026 1.787 2.849.385-.242-.853-1.36 1.13-.709-.204-.324-1.13.709-.526-.84 1.251-.785zm12.22 1.225a9.131 9.131 0 0 0-9.132 9.132 9.131 9.131 0 0 0 9.132 9.13 9.131 9.131 0 0 0 9.131-9.13 9.131 9.131 0 0 0-9.131-9.132zm3.87.31a9.786 9.786 0 0 1 2.91 1.998 9.908 9.908 0 0 1 2.868 6.923 9.91 9.91 0 0 1-2.867 6.923 9.5 9.5 0 0 1-.8.713 9.8 9.8 0 0 1 3.593-.694 9.909 9.909 0 0 1 6.923 2.868 9.908 9.908 0 0 1 2.868 6.923c0 .113-.003.227-.008.34a20.301 20.28 0 0 0 .943-6.092A20.301 20.28 0 0 0 31.65 7.846zm-8.323.14A20.301 20.28 0 0 0 7.48 27.747a20.301 20.28 0 0 0 .963 6.099 9.216 9.216 0 0 1-.012-.466 9.908 9.908 0 0 1 2.868-6.923 9.909 9.909 0 0 1 6.923-2.868c.961 0 1.92.148 2.838.43a9.382 9.382 0 0 1-.345-.329 9.91 9.91 0 0 1-2.867-6.924 9.908 9.908 0 0 1 2.868-6.923 9.752 9.752 0 0 1 2.612-1.856zm19.576.294l-2.086 2.638.357.282 2.085-2.637zm-31.055.6l-.355.335.28 1.64-1.629-.362-.354.337 2.074.46 1.102 1.162.331-.315-1.101-1.162zm32.362.942c-.028 0-.053 0-.08.002-.426.016-.829.218-1.207.605-.377.385-.571.79-.58 1.219-.008.427.169.818.532 1.174a1.918 1.918 0 0 0 .46.337c.165.086.342.146.531.18l.333-.339a1.568 1.568 0 0 1-.575-.115 1.442 1.442 0 0 1-.468-.311c-.274-.269-.403-.559-.385-.869.02-.311.184-.625.494-.941.311-.317.622-.488.932-.513.31-.023.603.096.877.366a1.442 1.442 0 0 1 .32.462 1.6 1.6 0 0 1 .127.572l.336-.343a1.736 1.736 0 0 0-.192-.522 1.938 1.938 0 0 0-.348-.455c-.341-.334-.71-.504-1.107-.509zm-34.708 1.32l-1.79 2.21.297.24.752-.927 2.314 1.876.288-.355L9.05 12.31l.752-.928zm37.847 1.597l-3.458.998.288.383.874-.274.912 1.21-.505.764.284.378 1.915-3.047zm-.203.475l-.964 1.501-.744-.987zm-39.868.785l-1.107 1.815 2.871 1.75 1.128-1.85-.327-.198-.89 1.46-1.041-.633.833-1.368-.327-.2-.833 1.368-.85-.518.87-1.427zm17.22.528c.288 0 .571.035.85.108.28.072.52.175.723.31l-.277.683a2.713 2.713 0 0 0-.648-.277 2.418 2.418 0 0 0-.655-.095c-.347 0-.606.059-.777.176a.543.543 0 0 0-.25.466c0 .135.048.245.142.33.1.086.223.154.372.203.149.05.35.106.607.169.352.08.64.166.865.257a1.421 1.421 0 0 1 .574.398c.162.18.243.423.243.73a1.231 1.231 0 0 1-.216.708c-.14.212-.354.38-.642.507-.288.126-.639.189-1.053.189-.365 0-.718-.052-1.06-.156-.338-.103-.606-.24-.804-.411l.304-.682c.194.153.43.279.709.378.283.094.567.141.85.141.352 0 .613-.056.784-.168.176-.113.264-.261.264-.446a.416.416 0 0 0-.15-.33.954.954 0 0 0-.364-.21 8.393 8.393 0 0 0-.607-.17 7.378 7.378 0 0 1-.878-.255 1.485 1.485 0 0 1-.574-.399c-.158-.184-.237-.432-.237-.743 0-.26.07-.497.21-.709.144-.216.357-.387.641-.513.288-.126.64-.189 1.053-.189zm-3.757.068h.877v4.726h-.877zm5.723 0h4.01v.742H28.91v3.984h-.878v-3.984h-1.566zm4.67 0h3.45v.736h-2.573v1.228h2.282v.723h-2.282v1.303h2.667v.736h-3.545zm17.773.398l-2.933 1.643 1.022 1.825.334-.187-.8-1.428 2.6-1.456zM5.614 16.926l-.197.41L8.45 18.79l.197-.41zm-.42 1.464a1.77 1.77 0 0 0-.391.394 1.932 1.932 0 0 0-.265.508c-.169.48-.155.91.043 1.29.195.38.548.66 1.058.839.509.179.959.182 1.35.008.39-.174.67-.5.84-.98a1.914 1.914 0 0 0 .11-.558 1.857 1.857 0 0 0-.061-.559l-.448-.158c.083.192.13.382.138.57a1.496 1.496 0 0 1-.083.555c-.128.363-.336.601-.625.716-.29.114-.644.098-1.062-.049-.419-.147-.705-.356-.858-.627-.155-.27-.168-.587-.04-.95a1.441 1.441 0 0 1 .283-.485c.124-.141.279-.26.464-.357zm45.759.833l-3.2 1.033.666 2.062.364-.118-.526-1.629 1.16-.374.492 1.524.364-.118-.492-1.524.947-.306.514 1.59.364-.117zm-45.998 2.92c-.325.004-.61.082-.858.235-.362.223-.584.566-.667 1.03-.083.465.008.866.268 1.2.26.334.653.548 1.176.641.523.093.965.027 1.325-.193.36-.224.582-.569.665-1.034.083-.465-.004-.863-.266-1.196-.263-.334-.655-.548-1.176-.64a2.664 2.664 0 0 0-.467-.042zm46.972.368l-3.32.54.15.922c.104.64.315 1.09.632 1.348.318.259.763.342 1.335.25.569-.093.962-.312 1.18-.656.22-.344.277-.838.172-1.481zm-47.03.109a1.996 1.996 0 0 1 .44.04c.417.074.73.228.938.462a.941.941 0 0 1 .225.836.954.954 0 0 1-.502.711c-.276.148-.623.184-1.04.11-.418-.075-.731-.23-.94-.464a.953.953 0 0 1-.225-.84.94.94 0 0 1 .502-.707c.172-.092.373-.141.601-.147zm46.733.4l.089.542c.074.458.023.81-.148 1.056-.172.247-.48.406-.924.478-.448.073-.793.02-1.035-.16-.242-.179-.4-.497-.474-.955l-.088-.542zm-33.422 1.347A9.131 9.131 0 0 0 9.076 33.5a9.131 9.131 0 0 0 9.132 9.13 9.131 9.131 0 0 0 9.131-9.13 9.131 9.131 0 0 0-9.131-9.132zm19.148 0a9.131 9.131 0 0 0-9.131 9.132 9.131 9.131 0 0 0 9.13 9.13 9.131 9.131 0 0 0 9.132-9.13 9.131 9.131 0 0 0-9.131-9.132zm-.4 1.458h.799l.282 1.282a6.43 6.43 0 0 1 .862.157l.706-1.113.75.273-.174 1.307a6.43 6.43 0 0 1 .761.433l1.04-.8.612.513-.608 1.162a6.43 6.43 0 0 1 .559.675l1.256-.398.4.691-.974.89a6.43 6.43 0 0 1 .304.82l1.312.056.139.786-1.212.5a6.43 6.43 0 0 1 .016.44 6.43 6.43 0 0 1-.024.437l1.218.502-.138.786-1.314.056a6.43 6.43 0 0 1-.3.823l.971.887-.4.691-1.254-.398a6.43 6.43 0 0 1-.563.67l.61 1.167-.611.514-1.043-.803a6.43 6.43 0 0 1-.758.439l.174 1.303-.75.273-.706-1.112a6.43 6.43 0 0 1-.861.152l-.284 1.286h-.798l-.283-1.28a6.43 6.43 0 0 1-.861-.159l-.707 1.113-.75-.273.174-1.307a6.43 6.43 0 0 1-.761-.433l-1.04.8-.612-.512.607-1.163a6.43 6.43 0 0 1-.558-.675l-1.257.398-.399-.691.974-.89a6.43 6.43 0 0 1-.305-.82l-1.312-.056-.138-.786 1.211-.5a6.43 6.43 0 0 1-.015-.44 6.43 6.43 0 0 1 .023-.437l-1.218-.502.139-.786 1.314-.055a6.43 6.43 0 0 1 .3-.823l-.972-.888.4-.69 1.255.397a6.43 6.43 0 0 1 .562-.67l-.61-1.167.612-.513 1.042.802a6.43 6.43 0 0 1 .759-.439l-.174-1.303.75-.273.706 1.112a6.43 6.43 0 0 1 .861-.151zm-5.724.04a9.8 9.8 0 0 1-3.592.693 9.723 9.723 0 0 1-2.839-.429c.118.106.233.216.346.328a9.916 9.916 0 0 1 2.656 4.929 9.91 9.91 0 0 1 2.63-4.809 9.499 9.499 0 0 1 .8-.713zm-25.66.18c-.272-.008-.492.07-.658.228-.167.157-.287.404-.36.742l-.062.273c-.052.248-.117.416-.194.505-.078.087-.192.128-.34.125a.475.475 0 0 1-.406-.21c-.093-.138-.137-.33-.13-.578a1.746 1.746 0 0 1 .07-.442c.044-.152.11-.314.196-.484l-.443-.012c-.061.17-.108.336-.14.5a2.818 2.818 0 0 0-.054.48c-.009.368.07.659.236.873.167.213.398.322.696.33.256.003.459-.066.606-.214.148-.149.26-.392.334-.73l.061-.275c.052-.23.126-.395.221-.493a.496.496 0 0 1 .39-.144c.19.004.334.078.433.222.098.143.145.345.139.604a1.862 1.862 0 0 1-.092.521 2.645 2.645 0 0 1-.246.537l.468.012c.075-.19.133-.375.173-.553.04-.179.062-.348.066-.507.007-.422-.067-.744-.23-.965-.163-.223-.408-.339-.734-.346zm44.79.473c-.44 0-.77.108-.994.324-.224.218-.336.539-.337.964 0 .423.112.743.335.96.224.217.555.326.993.327l2.1.001v-.457l-2.043-.002c-.36 0-.62-.065-.78-.196-.157-.13-.235-.342-.235-.633 0-.293.079-.504.237-.635.159-.13.419-.196.779-.195l2.043.001v-.457zm-31.638.194c-.155 3.624.296 2.695.595 4.384 0 1.264-.194 1.978-1.012 2.942a5.338 5.338 0 0 0 4.065 1.887 5.34 5.34 0 0 0 3.708-1.507 7.952 7.952 0 0 1-7.86 6.811 7.95 7.95 0 0 1-7.885-7.008 5.338 5.338 0 0 0 3.9 1.704c1.569 0 3.058-.69 4.072-1.887a5.338 5.338 0 0 1-1.273-3.451c0-1.264.873-2.91 1.69-3.875zm18.632 1.92a4.868 4.868 0 0 0-4.868 4.869 4.868 4.868 0 0 0 4.868 4.867 4.868 4.868 0 0 0 4.867-4.867 4.868 4.868 0 0 0-4.867-4.868zm0 1.057a3.812 3.812 0 0 1 3.812 3.812 3.812 3.812 0 0 1-3.812 3.811 3.812 3.812 0 0 1-3.812-3.811 3.812 3.812 0 0 1 3.812-3.812zm12.969.295a1.63 1.63 0 0 0-.947.268c-.352.242-.568.614-.646 1.117a1.979 1.979 0 0 0-.008.568 1.895 1.895 0 0 0 .162.539l.47.073a1.6 1.6 0 0 1-.24-.534 1.448 1.448 0 0 1-.02-.562c.06-.38.22-.652.483-.818.265-.165.616-.214 1.053-.145.44.069.759.222.959.46.201.238.272.547.213.927a1.466 1.466 0 0 1-.19.528 1.602 1.602 0 0 1-.392.436l.474.074a1.764 1.764 0 0 0 .313-.459c.081-.167.137-.35.168-.548.079-.503-.012-.923-.277-1.26-.262-.338-.66-.548-1.194-.632a2.636 2.636 0 0 0-.383-.032zm-43.701.672l-3.3.649.086.433 2.76-.543-2.473 2.006.118.6 3.3-.648-.085-.433-2.76.543 2.472-2.006zm41.947 2.069l-.142.458.733.548-.45 1.448-.914.035-.14.452 3.591-.227.153-.492zm-41.344.91l-2.723 2.353.176.485 3.6.057-.164-.45-.916.007-.518-1.424.707-.583zm42.255.34l1.416 1.085-1.782.095zm-43.107.95l.423 1.161-1.784-.008zm21.402.57a9.91 9.91 0 0 1-2.63 4.808 9.909 9.909 0 0 1-6.923 2.868 9.91 9.91 0 0 1-5.176-1.488 20.301 20.28 0 0 0 14.734 6.345 20.301 20.28 0 0 0 14.423-6.031 9.892 9.892 0 0 1-4.85 1.294 9.908 9.908 0 0 1-6.922-2.867 9.916 9.916 0 0 1-2.656-4.93zm19.491.943l-.192.415 2.704 1.252-.502 1.083.348.161 1.195-2.581-.347-.161-.502 1.083zm-38.733.516l-3.021 1.477.2.41 3.02-1.478zm37.789 1.35l-.23.392L49 40.39l.23-.393zm-37.698.29c-.313-.003-.652.112-1.018.347-.485.312-.76.668-.822 1.07-.064.404.08.88.432 1.428l.505.787 2.83-1.817-.505-.787c-.35-.545-.723-.873-1.117-.985a1.179 1.179 0 0 0-.305-.043zm.024.464a.774.774 0 0 1 .228.023c.293.067.565.296.816.687l.297.462-2.2 1.413-.298-.463c-.25-.39-.345-.733-.284-1.027.059-.295.277-.563.656-.807.287-.184.548-.28.785-.286zm37.342.853a2.133 2.133 0 0 0-.158.004c-.423.036-.776.245-1.06.623-.283.377-.384.773-.301 1.188.083.416.337.783.761 1.102.425.32.848.46 1.27.425.423-.036.776-.242 1.059-.619.284-.378.385-.776.302-1.193-.083-.415-.336-.782-.761-1.101-.372-.28-.743-.423-1.112-.43zm-.154.442c.314-.008.64.117.978.371.34.255.55.535.63.837.08.304.02.588-.178.852a.94.94 0 0 1-.766.405c-.313.008-.64-.117-.98-.372-.338-.255-.548-.533-.628-.836a.94.94 0 0 1 .175-.849.954.954 0 0 1 .77-.408zm-34.73.776l-2.492 2.257.296.328 2.085-1.889-1.084 2.994.41.454 2.493-2.257-.296-.327-2.085 1.888 1.084-2.994zM43.4 42.342l-.32.305 1.942 2.035-3.02-1.006-.444.423 2.321 2.433.32-.305-1.942-2.035 3.02 1.006.444-.423zM13.503 43.61l-2.224 2.522.341.301 2.224-2.521z" fill="#fff"/></svg>