<?xml version="1.0" encoding="UTF-8" standalone="no"?>
<!-- Created with Inkscape (http://www.inkscape.org/) -->

<svg
   xmlns:dc="http://purl.org/dc/elements/1.1/"
   xmlns:cc="http://creativecommons.org/ns#"
   xmlns:rdf="http://www.w3.org/1999/02/22-rdf-syntax-ns#"
   xmlns:svg="http://www.w3.org/2000/svg"
   xmlns="http://www.w3.org/2000/svg"
   xmlns:xlink="http://www.w3.org/1999/xlink"
   xmlns:sodipodi="http://sodipodi.sourceforge.net/DTD/sodipodi-0.dtd"
   xmlns:inkscape="http://www.inkscape.org/namespaces/inkscape"
   width="1122.5197"
   height="793.70081"
   viewBox="0 0 296.99998 210.00001"
   version="1.1"
   id="svg8"
   inkscape:version="0.92.4 (5da689c313, 2019-01-14)"
   sodipodi:docname="mission.svg">
  <defs
     id="defs2">
    <linearGradient
       inkscape:collect="always"
       id="linearGradient1497">
      <stop
         style="stop-color:#333333;stop-opacity:1"
         offset="0"
         id="stop1493" />
      <stop
         style="stop-color:#4d4d4d;stop-opacity:1"
         offset="1"
         id="stop1495" />
    </linearGradient>
    <linearGradient
       inkscape:collect="always"
       id="linearGradient1481">
      <stop
         style="stop-color:#4d4d4d;stop-opacity:1"
         offset="0"
         id="stop1477" />
      <stop
         style="stop-color:#1a1a1a;stop-opacity:1"
         offset="1"
         id="stop1479" />
    </linearGradient>
    <linearGradient
       inkscape:collect="always"
       id="linearGradient1473">
      <stop
         style="stop-color:#003380;stop-opacity:1"
         offset="0"
         id="stop1469" />
      <stop
         style="stop-color:#5599ff;stop-opacity:1"
         offset="1"
         id="stop1471" />
    </linearGradient>
    <linearGradient
       inkscape:collect="always"
       id="linearGradient1457">
      <stop
         style="stop-color:#aad400;stop-opacity:1"
         offset="0"
         id="stop1453" />
      <stop
         style="stop-color:#445500;stop-opacity:1"
         offset="1"
         id="stop1455" />
    </linearGradient>
    <linearGradient
       inkscape:collect="always"
       id="linearGradient1449">
      <stop
         style="stop-color:#aa8800;stop-opacity:1"
         offset="0"
         id="stop1445" />
      <stop
         style="stop-color:#ffd42a;stop-opacity:1"
         offset="1"
         id="stop1447" />
    </linearGradient>
    <linearGradient
       inkscape:collect="always"
       id="linearGradient1259">
      <stop
         style="stop-color:#333333;stop-opacity:1"
         offset="0"
         id="stop1255" />
      <stop
         style="stop-color:#808080;stop-opacity:1"
         offset="1"
         id="stop1257" />
    </linearGradient>
    <linearGradient
       inkscape:collect="always"
       id="linearGradient1251">
      <stop
         style="stop-color:#333333;stop-opacity:1"
         offset="0"
         id="stop1247" />
      <stop
         style="stop-color:#666666;stop-opacity:1"
         offset="1"
         id="stop1249" />
    </linearGradient>
    <linearGradient
       inkscape:collect="always"
       id="linearGradient1155">
      <stop
         style="stop-color:#ececec;stop-opacity:1"
         offset="0"
         id="stop1151" />
      <stop
         style="stop-color:#ffffff;stop-opacity:1"
         offset="1"
         id="stop1153" />
    </linearGradient>
    <linearGradient
       inkscape:collect="always"
       id="linearGradient1147">
      <stop
         style="stop-color:#ececec;stop-opacity:1"
         offset="0"
         id="stop1143" />
      <stop
         style="stop-color:#ececec;stop-opacity:1"
         offset="1"
         id="stop1145" />
    </linearGradient>
    <linearGradient
       inkscape:collect="always"
       id="linearGradient1139">
      <stop
         style="stop-color:#f2f2f2;stop-opacity:1"
         offset="0"
         id="stop1135" />
      <stop
         style="stop-color:#ffffff;stop-opacity:1"
         offset="1"
         id="stop1137" />
    </linearGradient>
    <linearGradient
       inkscape:collect="always"
       id="linearGradient1131">
      <stop
         style="stop-color:#aa0000;stop-opacity:1"
         offset="0"
         id="stop1127" />
      <stop
         style="stop-color:#ff0000;stop-opacity:1"
         offset="1"
         id="stop1129" />
    </linearGradient>
    <linearGradient
       inkscape:collect="always"
       id="linearGradient1123">
      <stop
         style="stop-color:#d40000;stop-opacity:1"
         offset="0"
         id="stop1119" />
      <stop
         style="stop-color:#ff0000;stop-opacity:1"
         offset="1"
         id="stop1121" />
    </linearGradient>
    <linearGradient
       inkscape:collect="always"
       id="linearGradient1115">
      <stop
         style="stop-color:#d40000;stop-opacity:1"
         offset="0"
         id="stop1111" />
      <stop
         style="stop-color:#ff0000;stop-opacity:1"
         offset="1"
         id="stop1113" />
    </linearGradient>
    <inkscape:perspective
       sodipodi:type="inkscape:persp3d"
       inkscape:vp_x="0 : 105.00001 : 1"
       inkscape:vp_y="0 : 1000 : 0"
       inkscape:vp_z="296.99998 : 105.00001 : 1"
       inkscape:persp3d-origin="148.49999 : 70.000003 : 1"
       id="perspective901" />
    <linearGradient
       inkscape:collect="always"
       xlink:href="#linearGradient1115"
       id="linearGradient1117"
       x1="113.72318"
       y1="230.04897"
       x2="92.207977"
       y2="267.73398"
       gradientUnits="userSpaceOnUse"
       gradientTransform="matrix(0.42661238,0,0,0.37680179,60.940567,171.04663)" />
    <linearGradient
       inkscape:collect="always"
       xlink:href="#linearGradient1123"
       id="linearGradient1125"
       x1="99.958801"
       y1="239.53705"
       x2="97.820648"
       y2="255.43959"
       gradientUnits="userSpaceOnUse"
       gradientTransform="matrix(0.42661238,0,0,0.37680179,60.940567,171.04663)" />
    <linearGradient
       inkscape:collect="always"
       xlink:href="#linearGradient1131"
       id="linearGradient1133"
       x1="103.96786"
       y1="246.75333"
       x2="102.76514"
       y2="249.15875"
       gradientUnits="userSpaceOnUse"
       gradientTransform="matrix(0.42661238,0,0,0.37680179,60.940567,171.04663)" />
    <linearGradient
       inkscape:collect="always"
       xlink:href="#linearGradient1139"
       id="linearGradient1141"
       x1="110.11504"
       y1="221.09546"
       x2="88.332581"
       y2="270.67395"
       gradientUnits="userSpaceOnUse"
       gradientTransform="matrix(0.42661238,0,0,0.37680179,60.940567,171.04663)" />
    <linearGradient
       inkscape:collect="always"
       xlink:href="#linearGradient1147"
       id="linearGradient1149"
       x1="108.37779"
       y1="233.25621"
       x2="96.617935"
       y2="262.65585"
       gradientUnits="userSpaceOnUse"
       gradientTransform="matrix(0.42661238,0,0,0.37680179,60.940567,171.04663)" />
    <linearGradient
       inkscape:collect="always"
       xlink:href="#linearGradient1155"
       id="linearGradient1157"
       x1="105.03692"
       y1="243.54608"
       x2="100.35971"
       y2="252.23235"
       gradientUnits="userSpaceOnUse"
       gradientTransform="matrix(0.42661238,0,0,0.37680179,60.940567,171.04663)" />
    <linearGradient
       inkscape:collect="always"
       xlink:href="#linearGradient1251"
       id="linearGradient1253"
       x1="562.50348"
       y1="631.4198"
       x2="562.50348"
       y2="629.65204"
       gradientUnits="userSpaceOnUse"
       gradientTransform="matrix(0.42661238,0,0,0.37680179,294.59555,554.47485)" />
    <linearGradient
       inkscape:collect="always"
       xlink:href="#linearGradient1259"
       id="linearGradient1261"
       x1="409"
       y1="620.70081"
       x2="416.5"
       y2="627.20081"
       gradientUnits="userSpaceOnUse"
       gradientTransform="matrix(0.42661238,0,0,0.37680179,294.59555,554.47485)" />
    <linearGradient
       inkscape:collect="always"
       xlink:href="#linearGradient1449"
       id="linearGradient1451"
       x1="174.29428"
       y1="294.0896"
       x2="180.77657"
       y2="296.00781"
       gradientUnits="userSpaceOnUse"
       gradientTransform="matrix(0.42661238,0,0,0.37680179,71.172599,189.95654)" />
    <linearGradient
       inkscape:collect="always"
       xlink:href="#linearGradient1457"
       id="linearGradient1459"
       x1="94.776726"
       y1="167.95802"
       x2="107.89154"
       y2="167.60149"
       gradientUnits="userSpaceOnUse"
       gradientTransform="matrix(0.4257767,0.00650984,0.00628698,0.37763746,109.89755,77.276347)" />
    <linearGradient
       inkscape:collect="always"
       xlink:href="#linearGradient1473"
       id="linearGradient1475"
       x1="105.84803"
       y1="168.515"
       x2="95.334068"
       y2="168.40781"
       gradientUnits="userSpaceOnUse"
       gradientTransform="matrix(0.41176863,0.02318271,0.02238905,0.39164553,117.98268,74.247271)" />
    <linearGradient
       inkscape:collect="always"
       xlink:href="#linearGradient1481"
       id="linearGradient1483"
       x1="173.5988"
       y1="179.81738"
       x2="176.67934"
       y2="178.34537"
       gradientUnits="userSpaceOnUse"
       gradientTransform="matrix(0.41176863,0.02318271,0.02238905,0.39164553,113.56811,81.159142)" />
    <linearGradient
       inkscape:collect="always"
       xlink:href="#linearGradient1497"
       id="linearGradient1485"
       x1="177.45596"
       y1="177.94571"
       x2="172.70332"
       y2="178.16243"
       gradientUnits="userSpaceOnUse"
       gradientTransform="matrix(0.4257767,0.00650984,0.00628698,0.37763746,105.7608,84.225504)" />
  </defs>
  <sodipodi:namedview
     id="base"
     pagecolor="#ffffff"
     bordercolor="#666666"
     borderopacity="1.0"
     inkscape:pageopacity="0.0"
     inkscape:pageshadow="2"
     inkscape:zoom="0.70710678"
     inkscape:cx="384.51055"
     inkscape:cy="290.55589"
     inkscape:document-units="mm"
     inkscape:current-layer="layer1"
     showgrid="false"
     units="px"
     inkscape:showpageshadow="false"
     inkscape:object-nodes="false"
     inkscape:window-width="1850"
     inkscape:window-height="1016"
     inkscape:window-x="70"
     inkscape:window-y="27"
     inkscape:window-maximized="1" />
  <metadata
     id="metadata5">
    <rdf:RDF>
      <cc:Work
         rdf:about="">
        <dc:format>image/svg+xml</dc:format>
        <dc:type
           rdf:resource="http://purl.org/dc/dcmitype/StillImage" />
        <dc:title></dc:title>
      </cc:Work>
    </rdf:RDF>
  </metadata>
  <g
     inkscape:label="Layer 1"
     inkscape:groupmode="layer"
     id="layer1"
     transform="translate(0,-86.999992)">
    <path
       style="opacity:1;fill:#4d4d4d;stroke-width:0.50507629"
       d=""
       id="path1215"
       inkscape:connector-curvature="0"
       transform="matrix(0.26458333,0,0,0.26458333,0,86.999992)" />
    <path
       style="opacity:1;fill:#000000;stroke-width:0.50507629"
       d=""
       id="path1219"
       inkscape:connector-curvature="0"
       transform="matrix(0.26458333,0,0,0.26458333,0,86.999992)" />
    <path
       style="opacity:1;fill:#000000;stroke-width:0.50507629"
       d=""
       id="path1223"
       inkscape:connector-curvature="0"
       transform="matrix(0.26458333,0,0,0.26458333,0,86.999992)" />
    <g
       id="g1467"
       style="opacity:1"
       transform="matrix(2.3440483,0,0,2.6539153,-142.84763,-453.94326)">
      <path
         style="opacity:1;fill:url(#linearGradient1157);fill-opacity:1;stroke-width:0.26726952"
         d="m 101.72579,255.10352 c -5.489957,-1.10624 -7.728917,-7.84352 -3.968007,-11.94018 2.370657,-2.58228 5.610027,-3.19789 8.700677,-1.65348 3.23601,1.61706 4.71194,5.04017 3.68953,8.55712 -1.01068,3.47663 -4.8297,5.76043 -8.4222,5.03654 z"
         id="path871"
         inkscape:connector-curvature="0" />
      <path
         style="opacity:1;fill:url(#linearGradient1125);fill-opacity:1;stroke-width:0.26726952"
         d="m 100.0743,259.83582 c -3.056467,-0.85506 -5.533927,-2.66963 -7.232087,-5.297 -1.39819,-2.16328 -1.94987,-4.4061 -1.80893,-7.35408 0.0975,-2.03896 0.24987,-2.66351 1.07248,-4.3957 4.00148,-8.42598 15.408607,-9.5645 20.913027,-2.08727 1.56891,2.13121 2.33207,4.47758 2.33207,7.17001 0,1.15507 -0.14078,2.62933 -0.31286,3.27613 -0.77887,2.92765 -3.1026,5.90406 -5.87654,7.52712 -2.42436,1.41852 -6.36605,1.92203 -9.08716,1.16079 z m 6.2173,-5.26518 c 1.46391,-0.73299 2.7695,-1.9729 3.49143,-3.31581 0.45814,-0.85221 0.57538,-1.52994 0.57794,-3.34087 0.003,-1.98169 -0.0874,-2.42537 -0.70635,-3.47451 -1.40862,-2.38764 -3.37521,-3.55078 -6.25278,-3.69824 -1.51526,-0.0777 -2.12614,0.0172 -3.1197,0.48419 -4.871977,2.29011 -5.961977,8.18556 -2.207547,11.93998 2.255667,2.25567 5.433267,2.7991 8.217007,1.40526 z"
         id="path873"
         inkscape:connector-curvature="0" />
      <path
         style="opacity:1;fill:url(#linearGradient1149);fill-opacity:1;stroke-width:0.26726952"
         d="m 98.391403,266.12649 c -3.32999,-0.89714 -5.63047,-2.26508 -8.30627,-4.9392 -1.70684,-1.70578 -2.69746,-2.96042 -3.38193,-4.28329 -3.92636,-7.58844 -2.5993,-16.31089 3.37505,-22.18337 5.84458,-5.74494 14.024077,-7.04797 21.517557,-3.42787 4.69542,2.26837 8.46429,6.91627 9.82305,12.11413 0.69145,2.64507 0.61751,7.08053 -0.16024,9.61228 -1.19711,3.89687 -3.1239,6.90406 -5.96847,9.31515 -1.97001,1.66979 -5.24581,3.3349 -7.69037,3.90907 -2.43212,0.57125 -6.86287,0.515 -9.208377,-0.1169 z m 7.996317,-6.29132 c 3.33474,-0.86859 6.19925,-3.23622 7.93116,-6.55541 0.88515,-1.69638 0.89808,-1.77123 0.89808,-5.20128 0,-3.39696 -0.0211,-3.52293 -0.88195,-5.2716 -4.64193,-9.42912 -17.675877,-9.44118 -22.174107,-0.0205 -0.98116,2.05483 -0.9982,2.14528 -0.9982,5.29775 0,3.03391 0.0447,3.30112 0.82784,4.94449 2.63622,5.53223 8.552007,8.32905 14.397177,6.80658 z"
         id="path875"
         inkscape:connector-curvature="0" />
      <path
         style="opacity:1;fill:url(#linearGradient1141);fill-opacity:1;stroke-width:0.26726952"
         d="m 100.51377,277.89529 c -6.0352,-0.87647 -10.110463,-2.36042 -14.402593,-5.2445 -2.11327,-1.42001 -6.44618,-5.77272 -7.7901,-7.82571 -7.6682,-11.71398 -6.76469,-26.218 2.28847,-36.7367 4.29868,-4.99454 10.7989,-8.64457 17.453183,-9.80038 3.41862,-0.59379 9.34962,-0.38714 12.45413,0.43393 10.85656,2.87129 19.0636,11.08907 21.8414,21.86995 0.84146,3.26576 1.10287,7.89336 0.64002,11.32996 -1.69559,12.58956 -11.27342,22.83023 -23.82115,25.46973 -1.92398,0.40472 -7.22334,0.71284 -8.66336,0.50372 z m 7.75082,-5.62095 c 7.49139,-1.40786 14.30541,-6.85901 17.66604,-14.13266 1.51128,-3.27097 2.08796,-6.11602 2.08535,-10.28821 -0.002,-2.478 -0.14279,-4.17215 -0.45094,-5.40882 -2.3232,-9.32356 -9.01032,-16.21712 -18.1414,-18.70144 -1.88857,-0.51383 -2.85946,-0.60339 -6.37081,-0.58771 -3.68015,0.0164 -4.40044,0.0971 -6.45149,0.72221 -3.09564,0.94352 -4.990643,1.80739 -7.229103,3.29551 -5.07587,3.37444 -8.93501,8.92123 -10.41307,14.96683 -0.72672,2.97246 -0.80096,8.08307 -0.15926,10.96358 1.70749,7.66469 6.79218,14.00935 13.865053,17.30074 5.17173,2.40669 9.7948,2.96087 15.59963,1.86997 z"
         id="path877"
         inkscape:connector-curvature="0" />
      <path
         style="opacity:1;fill:url(#linearGradient1117);fill-opacity:1;stroke-width:0.26726952"
         d="m 99.530118,272.43448 c -2.630114,-0.39892 -6.704994,-1.89219 -9.077814,-3.32662 -5.48845,-3.31792 -9.5806,-8.74864 -11.2698,-14.95626 -0.80474,-2.9573 -0.86738,-8.96627 -0.12398,-11.89349 2.48884,-9.80012 9.97586,-16.85802 19.86799,-18.72924 2.473776,-0.46795 8.534776,-0.17716 10.893486,0.52262 10.27743,3.04914 17.40349,11.9259 17.95832,22.37022 0.19231,3.62027 -0.20441,6.58007 -1.30042,9.70197 -2.70181,7.69591 -9.52608,13.9173 -17.32608,15.79546 -2.67941,0.64517 -7.17739,0.88608 -9.621702,0.51534 z m 5.994592,-5.82882 c 1.22034,-0.35868 4.24612,-1.11013 4.62937,-1.1497 0.18375,-0.019 0.33409,-0.14182 0.33409,-0.27299 0,-0.13117 0.12027,-0.16417 0.26727,-0.0733 0.147,0.0908 0.26727,0.0307 0.26727,-0.13363 0,-0.16435 0.12027,-0.22449 0.26727,-0.13364 0.147,0.0909 0.26727,0.0307 0.26727,-0.13363 0,-0.16435 0.12027,-0.22449 0.26727,-0.13364 0.147,0.0909 0.26727,0.0307 0.26727,-0.13363 0,-0.16435 0.12027,-0.22449 0.26727,-0.13363 0.147,0.0909 0.26727,0.0378 0.26727,-0.11787 0,-0.15567 0.1804,-0.28304 0.4009,-0.28304 0.2205,0 0.4009,-0.0943 0.4009,-0.20964 0,-0.11531 0.33335,-0.40656 0.74077,-0.64723 0.60911,-0.35981 2.14406,-1.83159 4.27054,-4.09477 0.18375,-0.19557 0.33409,-0.48443 0.33409,-0.64193 0,-0.1575 0.12737,-0.28636 0.28304,-0.28636 0.15567,0 0.20871,-0.12027 0.11786,-0.26727 -0.0908,-0.147 -0.0561,-0.26727 0.0773,-0.26727 0.2666,0 1.29936,-2.13679 1.19226,-2.4668 -0.0367,-0.11324 0.0535,-0.20589 0.20045,-0.20589 0.147,0 0.25303,-0.0902 0.23562,-0.20045 -0.0174,-0.11025 -0.002,-0.29066 0.0334,-0.40091 0.0358,-0.11025 0.0951,-0.32072 0.13188,-0.46772 0.0368,-0.147 0.091,-0.29734 0.12067,-0.33409 0.0657,-0.0815 0.24408,-0.86298 0.44233,-1.9377 0.25658,-1.39091 0.13774,-6.77019 -0.17571,-7.95293 -0.43093,-1.62608 -1.63025,-4.59284 -1.89933,-4.69838 -0.1257,-0.0493 -0.16056,-0.19965 -0.0775,-0.33409 0.0831,-0.13444 0.0237,-0.24444 -0.13197,-0.24444 -0.15568,0 -0.28304,-0.18041 -0.28304,-0.40091 0,-0.2205 -0.12028,-0.4009 -0.26727,-0.4009 -0.147,0 -0.26727,-0.17618 -0.26727,-0.3915 0,-0.21533 -0.24055,-0.52024 -0.53454,-0.67758 -0.294,-0.15734 -0.53454,-0.44826 -0.53454,-0.64648 0,-0.19822 -0.51116,-0.80041 -1.1359,-1.33819 -0.62474,-0.53779 -1.32639,-1.15314 -1.55922,-1.36745 -0.23283,-0.21431 -0.56357,-0.38965 -0.73499,-0.38965 -0.17142,0 -0.31166,-0.12028 -0.31166,-0.26727 0,-0.147 -0.18041,-0.26727 -0.40091,-0.26727 -0.2205,0 -0.4009,-0.10568 -0.4009,-0.23485 0,-0.25506 -1.61085,-1.0014 -1.93771,-0.89778 -0.11025,0.0349 -0.20045,-0.0638 -0.20045,-0.2195 0,-0.15567 -0.12027,-0.20871 -0.26727,-0.11786 -0.147,0.0909 -0.26727,0.0474 -0.26727,-0.0966 0,-0.21977 -0.92113,-0.55686 -2.00452,-0.73357 -0.147,-0.024 -0.32741,-0.0675 -0.4009,-0.0967 -0.3814,-0.15156 -1.69992,-0.31007 -3.69026,-0.44364 -3.33142,-0.22358 -8.129816,0.75687 -9.427646,1.92634 -0.23243,0.20943 -0.50304,0.30035 -0.60136,0.20203 -0.0983,-0.0983 -0.17876,-0.0314 -0.17876,0.14883 0,0.18017 -0.10514,0.2626 -0.23364,0.18318 -0.12851,-0.0794 -0.54204,0.14141 -0.91895,0.49072 -0.37692,0.34932 -0.73609,0.58433 -0.79817,0.52226 -0.0621,-0.0621 -0.43814,0.31361 -0.83572,0.83486 -0.39758,0.52125 -0.83552,0.8781 -0.97321,0.793 -0.1377,-0.0851 -0.36503,0.1469 -0.50519,0.51556 -0.14016,0.36865 -0.56089,0.8708 -0.93495,1.11589 -0.37405,0.2451 -0.6801,0.6122 -0.6801,0.81579 0,0.20359 -0.12027,0.37017 -0.26727,0.37017 -0.147,0 -0.26727,0.18041 -0.26727,0.4009 0,0.2205 -0.0961,0.40091 -0.21358,0.40091 -0.11746,0 -0.36579,0.42095 -0.55184,0.93544 -0.18604,0.51449 -0.47079,0.93544 -0.63277,0.93544 -0.16198,0 -0.21856,0.076 -0.12574,0.16878 0.0928,0.0928 0.0269,0.42357 -0.14643,0.73499 -0.17337,0.31142 -0.32784,0.62635 -0.34328,0.69985 -0.0154,0.0735 -0.18809,0.67486 -0.38368,1.33635 -0.1956,0.66149 -0.41207,1.50339 -0.48106,1.87088 -0.1774,0.94502 -0.15274,5.58882 0.0348,6.54811 0.37689,1.92816 0.75024,3.17073 1.07639,3.58239 0.16348,0.20635 0.26556,0.41764 0.22684,0.46955 -0.0614,0.0823 0.46039,1.11325 1.76363,3.48466 0.19629,0.35716 0.52634,0.71442 0.73346,0.79389 0.20711,0.0795 0.3168,0.24122 0.24374,0.35943 -0.17281,0.27961 3.34196,3.50311 3.62734,3.32674 0.11961,-0.0739 0.31508,0.0214 0.43436,0.21189 0.57592,0.91962 6.560244,3.3038 7.442656,2.96518 0.19742,-0.0757 0.57672,-0.0111 0.8429,0.14377 0.59777,0.34771 3.36438,0.38267 4.47402,0.0565 z"
         id="path879"
         inkscape:connector-curvature="0" />
      <ellipse
         ry="2.271791"
         rx="2.3386083"
         cy="247.95508"
         cx="103.18139"
         id="path1035"
         style="opacity:0.91600001;fill:url(#linearGradient1133);fill-opacity:1;stroke-width:0.26458332" />
    </g>
    <ellipse
       style="opacity:1;fill:#ff0000;stroke-width:0.65991694"
       id="path1037"
       cx="297.34109"
       cy="170.03618"
       rx="0.15662317"
       ry="0.53198302" />
    <g
       transform="matrix(-1.3332702,0.98351774,-0.85368451,-1.483455,492.50658,288.46392)"
       id="g1061"
       style="opacity:1">
      <path
         inkscape:connector-curvature="0"
         style="opacity:0.91600001;fill:#000000;stroke-width:0.61080927"
         d="m 387.89844,343.17188 v 1.51562 h 263.14453 v -1.51562 z"
         transform="matrix(0.26458333,0,0,0.26458333,0,86.999992)"
         id="path1039" />
      <g
         id="g1053"
         transform="translate(-7.0826425,11.091685)">
        <g
           id="g1051">
          <path
             id="path1041"
             d="m 89.317833,160.47282 12.762017,6.47247 -12.762017,6.47247 2.258262,-0.0661 12.515515,-6.34742 -12.762012,-6.47247 z m 31.198617,5.93297 -0.21963,0.006 0.10336,0.0527 z"
             style="opacity:0.48200001;fill:#2b0000;stroke-width:0.19086225"
             inkscape:connector-curvature="0" />
          <path
             inkscape:connector-curvature="0"
             style="opacity:0.48200001;fill:#2b0000;stroke-width:0.19086225"
             d="m 94.235402,160.41878 12.762018,6.47247 -12.762018,6.47247 2.258262,-0.0661 12.515516,-6.34742 -12.762013,-6.47247 z m 31.198618,5.93297 -0.21963,0.006 0.10336,0.0527 z"
             id="path1043" />
          <path
             style="opacity:0.66100003;fill:url(#linearGradient1475);fill-opacity:1;stroke-width:0.19086225"
             d="m 81.826848,160.39803 12.762013,6.47247 -12.762013,6.47248 18.436082,-0.5395 10.75077,-5.45238 2.01176,0.0589 -1.06402,-0.53951 1.06402,-0.5395 -2.01176,0.0589 -10.75077,-5.45238 z"
             id="path1045"
             inkscape:connector-curvature="0" />
          <path
             inkscape:connector-curvature="0"
             style="opacity:0.48200001;fill:#2b0000;stroke-width:0.19086225"
             d="m 83.838808,160.33918 12.762013,6.47248 -12.762013,6.47247 2.258261,-0.0661 12.515514,-6.34741 -12.76201,-6.47247 z m 31.198612,5.93298 -0.21962,0.006 0.10335,0.0527 z"
             id="path1047" />
          <rect
             style="opacity:0.48200001;fill:#2b0000;stroke-width:0.25579855"
             id="rect1049"
             width="18.307961"
             height="0.93544334"
             x="94.747047"
             y="166.43883" />
        </g>
      </g>
      <rect
         style="opacity:0.48200001;fill:#2b0000;stroke-width:0.26458332"
         id="rect1055"
         width="0.13363476"
         height="0.53453904"
         x="190.29591"
         y="163.63249" />
      <path
         style="opacity:0.81000001;fill:url(#linearGradient1483);fill-opacity:1;stroke-width:0.29466307"
         d="m 168.11233,171.57002 v 0.22531 l 4.20632,6.2296 -4.20632,6.37532 v 0.0729 l 0.0259,0.0114 14.36333,-6.5257 z"
         id="path1057"
         inkscape:connector-curvature="0" />
      <path
         inkscape:connector-curvature="0"
         style="opacity:0.88800001;fill:#2b0000;stroke-width:0.99999994"
         d="m 651.04297,343.17188 v 1.51562 h 37.88086 v -1.51562 z"
         id="path1059"
         transform="matrix(0.26458333,0,0,0.26458333,0,86.999992)" />
    </g>
    <g
       id="g1085"
       transform="matrix(-1.5778902,0.23336196,-0.20255608,-1.7556299,425.13008,473.37611)"
       style="opacity:1">
      <path
         id="path1063"
         transform="matrix(0.26458333,0,0,0.26458333,0,86.999992)"
         d="m 387.89844,343.17188 v 1.51562 h 263.14453 v -1.51562 z"
         style="opacity:0.91600001;fill:#000000;stroke-width:0.61080927"
         inkscape:connector-curvature="0" />
      <g
         transform="translate(-7.0826425,11.091685)"
         id="g1077">
        <g
           id="g1075">
          <path
             inkscape:connector-curvature="0"
             style="opacity:0.48200001;fill:#2b0000;stroke-width:0.19086225"
             d="m 89.317833,160.47282 12.762017,6.47247 -12.762017,6.47247 2.258262,-0.0661 12.515515,-6.34742 -12.762012,-6.47247 z m 31.198617,5.93297 -0.21963,0.006 0.10336,0.0527 z"
             id="path1065" />
          <path
             id="path1067"
             d="m 94.235402,160.41878 12.762018,6.47247 -12.762018,6.47247 2.258262,-0.0661 12.515516,-6.34742 -12.762013,-6.47247 z m 31.198618,5.93297 -0.21963,0.006 0.10336,0.0527 z"
             style="opacity:0.48200001;fill:#2b0000;stroke-width:0.19086225"
             inkscape:connector-curvature="0" />
          <path
             inkscape:connector-curvature="0"
             id="path1069"
             d="m 81.826848,160.39803 12.762013,6.47247 -12.762013,6.47248 18.436082,-0.5395 10.75077,-5.45238 2.01176,0.0589 -1.06402,-0.53951 1.06402,-0.5395 -2.01176,0.0589 -10.75077,-5.45238 z"
             style="opacity:0.48200001;fill:url(#linearGradient1459);fill-opacity:1;stroke-width:0.19086225" />
          <path
             id="path1071"
             d="m 83.838808,160.33918 12.762013,6.47248 -12.762013,6.47247 2.258261,-0.0661 12.515514,-6.34741 -12.76201,-6.47247 z m 31.198612,5.93298 -0.21962,0.006 0.10335,0.0527 z"
             style="opacity:0.48200001;fill:#2b0000;stroke-width:0.19086225"
             inkscape:connector-curvature="0" />
          <rect
             y="166.43883"
             x="94.747047"
             height="0.93544334"
             width="18.307961"
             id="rect1073"
             style="opacity:0.48200001;fill:#2b0000;stroke-width:0.25579855" />
        </g>
      </g>
      <rect
         y="163.63249"
         x="190.29591"
         height="0.53453904"
         width="0.13363476"
         id="rect1079"
         style="opacity:0.48200001;fill:#2b0000;stroke-width:0.26458332" />
      <path
         inkscape:connector-curvature="0"
         id="path1081"
         d="m 168.11233,171.57002 v 0.22531 l 4.20632,6.2296 -4.20632,6.37532 v 0.0729 l 0.0259,0.0114 14.36333,-6.5257 z"
         style="opacity:0.994;fill:url(#linearGradient1485);fill-opacity:1;stroke-width:0.29466307" />
      <path
         transform="matrix(0.26458333,0,0,0.26458333,0,86.999992)"
         id="path1083"
         d="m 651.04297,343.17188 v 1.51562 h 37.88086 v -1.51562 z"
         style="opacity:0.48200001;fill:#2b0000;stroke-width:0.99999994"
         inkscape:connector-curvature="0" />
    </g>
    <g
       id="g1317"
       transform="matrix(2.3440483,0,0,2.6539153,-182.707,-533.23274)"
       style="opacity:1">
      <path
         inkscape:connector-curvature="0"
         style="opacity:0.73900003;fill:#000000;stroke-width:0.10876025"
         d="m 171.45648,293.44389 0.0761,-0.25647 -45.31214,-13.44637 -0.0761,0.25648 z"
         id="path1087" />
      <path
         inkscape:connector-curvature="0"
         style="opacity:0.73900003;fill:#806600;stroke-width:0.12844646"
         d="m 180.33699,300.45436 -7.07727,-6.60436 9.53415,-1.67493 -1.48225,-0.39386 -9.35,1.64255 7.07728,6.60437 z m -19.17849,-9.81996 0.14408,0.0386 -0.0573,-0.0537 z"
         id="path1091" />
      <rect
         transform="rotate(-163.47176)"
         style="opacity:0.48200001;fill:#666666;stroke-width:0.17805925"
         id="rect1103"
         width="0.090720132"
         height="0.3566148"
         x="-188.34064"
         y="-241.99153" />
      <g
         id="g1297">
        <path
           inkscape:connector-curvature="0"
           id="path1105"
           d="m 127.65858,284.78061 0.0428,-0.1441 -1.55519,-4.79668 3.94753,-3.26515 0.0138,-0.0466 -0.0147,-0.0123 -10.58642,1.39972 z"
           style="opacity:0.73900003;fill:#666666;stroke-width:0.19830231" />
        <path
           id="path1107"
           d="m 126.14434,279.99753 0.0761,-0.25648 -6.52289,-1.93566 -0.0761,0.25647 z"
           style="opacity:0.73900003;fill:#666666;stroke-width:0.17805925"
           inkscape:connector-curvature="0" />
        <path
           style="opacity:0.90499998;fill:url(#linearGradient1253);fill-opacity:1;stroke-width:0.50507629"
           d="m 465.87382,725.00934 c -6.17516,-1.81797 -11.14387,-3.38909 -11.04157,-3.49139 0.23678,-0.23678 33.55337,-4.68767 34.90789,-4.66348 1.16129,0.0207 0.1615,0.98132 -7.8346,7.52734 l -4.80414,3.93292 z"
           id="path1209"
           inkscape:connector-curvature="0"
           transform="matrix(0.26458333,0,0,0.26458333,0,86.999992)" />
        <path
           style="opacity:0.73900003;fill:url(#linearGradient1261);fill-opacity:1;stroke-width:0.50507629"
           d="m 467.96741,735.08695 c -7.80812,-6.56867 -14.13406,-12.01895 -14.05763,-12.11173 0.0764,-0.0928 5.2728,1.35909 11.5475,3.22636 l 11.40855,3.39505 2.75576,8.62043 c 1.51567,4.74124 2.70776,8.66374 2.64908,8.71668 -0.0587,0.0529 -6.49514,-5.27812 -14.30326,-11.84679 z"
           id="path1211"
           inkscape:connector-curvature="0"
           transform="matrix(0.26458333,0,0,0.26458333,0,86.999992)" />
        <path
           style="opacity:0.73900003;fill:#4d4d4d;stroke-width:0.50507629"
           d="m 475.13501,729.07856 c -0.20834,-0.20835 -0.53033,-0.39164 -0.71552,-0.40732 -0.85982,-0.0728 -3.92574,-0.88017 -4.37733,-1.15269 -0.27779,-0.16764 -0.95964,-0.37226 -1.51523,-0.45471 -0.97895,-0.14528 -5.28014,-1.42044 -6.81853,-2.02147 -0.41669,-0.16279 -0.92808,-0.34403 -1.13642,-0.40274 -0.20834,-0.0587 -0.54927,-0.16208 -0.75761,-0.2297 -0.20835,-0.0676 -0.5732,-0.0881 -0.81078,-0.0454 -0.23759,0.0426 -0.74898,-0.18555 -1.13642,-0.50711 -0.38745,-0.32155 -0.70445,-0.41534 -0.70445,-0.20841 0,0.20692 -0.31212,0.11719 -0.6936,-0.19941 -0.38148,-0.3166 -1.06333,-0.43375 -1.51523,-0.26035 -0.45385,0.17417 -0.82163,0.065 -0.82163,-0.24382 0,-0.30751 -0.34093,-0.55911 -0.75762,-0.55911 -0.41668,0 -0.75761,-0.2426 -0.75761,-0.53912 0,-0.33226 0.43602,-0.39679 1.13642,-0.16818 0.62503,0.20401 1.59099,0.42767 2.14658,0.49702 0.55558,0.0694 1.06697,0.17345 1.13642,0.23132 0.0694,0.0579 0.33461,0.13364 0.58925,0.16836 0.25464,0.0347 0.61779,0.21794 0.807,0.40714 0.1892,0.18921 0.66271,0.22171 1.05224,0.0722 0.38953,-0.14947 0.70823,-0.007 0.70823,0.31715 0,0.32391 0.23724,0.4423 0.5272,0.26309 0.28997,-0.1792 0.89311,-0.0222 1.34032,0.349 0.44722,0.37116 0.89183,0.61801 0.98803,0.54856 0.0962,-0.0694 0.23173,-0.10758 0.30118,-0.0847 0.0695,0.0229 0.76003,0.14543 1.53463,0.27242 0.7746,0.12699 2.02466,0.48415 2.77792,0.79369 0.75326,0.30954 1.71048,0.64987 2.12717,0.75627 2.00136,0.51106 2.2815,0.59116 2.39911,0.68596 0.0694,0.056 0.35356,0.1586 0.63135,0.22805 0.27779,0.0694 0.5619,0.17002 0.63135,0.22349 0.0694,0.0535 0.90533,0.19804 1.85752,0.32125 1.99752,0.25848 2.28472,0.44566 1.82505,1.18943 -0.38578,0.62419 -1.44958,0.70927 -1.99899,0.15987 z"
           id="path1213"
           inkscape:connector-curvature="0"
           transform="matrix(0.26458333,0,0,0.26458333,0,86.999992)" />
        <path
           style="opacity:0.73900003;fill:#000000;stroke-width:0.50507629"
           d="m 475.72069,729.15916 c -0.1489,-0.14891 -1.37385,-0.58039 -2.72209,-0.95886 -1.34825,-0.37847 -4.2105,-1.18504 -6.36056,-1.79239 -2.15005,-0.60735 -3.79608,-1.28729 -3.65783,-1.51098 0.2752,-0.44528 2.05957,-0.0276 7.80555,1.82704 2.07574,0.66999 4.29176,1.21817 4.9245,1.21817 0.63274,0 1.15043,0.21387 1.15043,0.47526 0,0.59673 -0.77849,1.10327 -1.14,0.74176 z"
           id="path1217"
           inkscape:connector-curvature="0"
           transform="matrix(0.26458333,0,0,0.26458333,0,86.999992)" />
        <path
           style="opacity:0.73900003;fill:#000000;stroke-width:0.50507629"
           d="m 496.30613,735.0132 -1.01016,-0.43407 h 1.01016 c 0.55558,0 1.46472,0.19533 2.0203,0.43407 l 1.01015,0.43408 h -1.01015 c -0.55558,0 -1.46472,-0.19533 -2.0203,-0.43408 z"
           id="path1221"
           inkscape:connector-curvature="0"
           transform="matrix(0.26458333,0,0,0.26458333,0,86.999992)" />
      </g>
      <path
         id="path1265"
         d="m 180.33699,300.45436 -7.07727,-6.60436 9.53415,-1.67493 -1.48225,-0.39386 -9.35,1.64255 7.07728,6.60437 z m -19.17849,-9.81996 0.14408,0.0386 -0.0573,-0.0537 z"
         style="opacity:0.73900003;fill:#806600;stroke-width:0.12844646"
         inkscape:connector-curvature="0" />
      <g
         id="g1288">
        <path
           inkscape:connector-curvature="0"
           style="opacity:0.73900003;fill:#806600;stroke-width:0.12844646"
           d="m 183.54768,301.36953 -7.07728,-6.60437 9.53416,-1.67493 -1.48226,-0.39386 -9.34999,1.64256 7.07727,6.60436 z m -19.17849,-9.81996 0.14408,0.0386 -0.0573,-0.0537 z"
           id="path1089" />
        <path
           inkscape:connector-curvature="0"
           id="path1093"
           d="m 188.40873,302.86409 -7.07727,-6.60437 9.53415,-1.67493 -12.10087,-3.2155 -8.0316,1.41094 -1.29811,-0.4262 0.59009,0.55055 -0.79488,0.13956 1.32047,0.35085 5.96193,5.56351 z"
           style="opacity:0.73900003;fill:url(#linearGradient1451);fill-opacity:1;stroke-width:0.12844646" />
        <path
           id="path1095"
           d="m 187.08815,302.51316 -7.07727,-6.60437 9.53415,-1.67493 -1.48226,-0.39386 -9.34999,1.64255 7.07727,6.60437 z m -19.17849,-9.81997 0.14407,0.0386 -0.0573,-0.0537 z"
           style="opacity:0.73900003;fill:#aa8800;stroke-width:0.12844646"
           inkscape:connector-curvature="0" />
        <rect
           y="-232.71954"
           x="-258.0137"
           height="0.62407589"
           width="12.428657"
           id="rect1097"
           style="opacity:0.73900003;fill:#aa8800;stroke-width:0.17214727"
           transform="rotate(-163.47176)" />
        <path
           id="path1267"
           d="m 183.54768,301.36953 -7.07728,-6.60437 9.53416,-1.67493 -1.48226,-0.39386 -9.34999,1.64256 7.07727,6.60436 z m -19.17849,-9.81996 0.14408,0.0386 -0.0573,-0.0537 z"
           style="opacity:0.73900003;fill:#806600;stroke-width:0.12844646"
           inkscape:connector-curvature="0" />
      </g>
    </g>
    <path
       inkscape:connector-curvature="0"
       style="opacity:1;fill:#333333;stroke-width:0.53103304"
       d="M 48.923291,258.12971 A 78.718806,20.357214 0 0 0 5.1449573,276.36175 78.718806,20.357214 0 0 0 83.863831,296.71954 78.718806,20.357214 0 0 0 162.5827,276.36175 78.718806,20.357214 0 0 0 145.21236,263.61551 70.167176,79.194536 0 0 1 99.672772,282.68276 70.167176,79.194536 0 0 1 48.923291,258.12971 Z"
       id="path1499" />
    <ellipse
       style="opacity:0.994;fill:#4d4d4d;stroke-width:0.65991694"
       id="path1501"
       cx="99.760963"
       cy="263.45245"
       rx="1.4252709"
       ry="0.24825874" />
  </g>
</svg>
