<?xml version="1.0" encoding="UTF-8" standalone="no"?>
<!-- Created with Inkscape (http://www.inkscape.org/) -->

<svg
   xmlns:dc="http://purl.org/dc/elements/1.1/"
   xmlns:cc="http://creativecommons.org/ns#"
   xmlns:rdf="http://www.w3.org/1999/02/22-rdf-syntax-ns#"
   xmlns:svg="http://www.w3.org/2000/svg"
   xmlns="http://www.w3.org/2000/svg"
   xmlns:xlink="http://www.w3.org/1999/xlink"
   xmlns:sodipodi="http://sodipodi.sourceforge.net/DTD/sodipodi-0.dtd"
   xmlns:inkscape="http://www.inkscape.org/namespaces/inkscape"
   width="297mm"
   height="210mm"
   viewBox="0 0 297 210"
   version="1.1"
   id="svg8"
   inkscape:version="0.92.4 (5da689c313, 2019-01-14)"
   sodipodi:docname="vision.svg">
  <defs
     id="defs2">
    <linearGradient
       inkscape:collect="always"
       id="linearGradient4958">
      <stop
         style="stop-color:#b3b3b3;stop-opacity:1"
         offset="0"
         id="stop4954" />
      <stop
         style="stop-color:#916f6f;stop-opacity:1"
         offset="1"
         id="stop4956" />
    </linearGradient>
    <linearGradient
       inkscape:collect="always"
       id="linearGradient4938">
      <stop
         style="stop-color:#483737;stop-opacity:1"
         offset="0"
         id="stop4934" />
      <stop
         style="stop-color:#6c5353;stop-opacity:1"
         offset="1"
         id="stop4936" />
    </linearGradient>
    <linearGradient
       inkscape:collect="always"
       id="linearGradient4930">
      <stop
         style="stop-color:#b3b3b3;stop-opacity:1"
         offset="0"
         id="stop4926" />
      <stop
         style="stop-color:#916f6f;stop-opacity:1"
         offset="1"
         id="stop4928" />
    </linearGradient>
    <linearGradient
       inkscape:collect="always"
       id="linearGradient4858">
      <stop
         style="stop-color:#b3b3b3;stop-opacity:1"
         offset="0"
         id="stop4854" />
      <stop
         style="stop-color:#ececec;stop-opacity:1"
         offset="1"
         id="stop4856" />
    </linearGradient>
    <linearGradient
       inkscape:collect="always"
       id="linearGradient4850">
      <stop
         style="stop-color:#000000;stop-opacity:1"
         offset="0"
         id="stop4846" />
      <stop
         style="stop-color:#333333;stop-opacity:1"
         offset="1"
         id="stop4848" />
    </linearGradient>
    <linearGradient
       inkscape:collect="always"
       id="linearGradient4842">
      <stop
         style="stop-color:#483737;stop-opacity:1"
         offset="0"
         id="stop4838" />
      <stop
         style="stop-color:#6c5353;stop-opacity:1"
         offset="1"
         id="stop4840" />
    </linearGradient>
    <linearGradient
       inkscape:collect="always"
       id="linearGradient4834">
      <stop
         style="stop-color:#483737;stop-opacity:1"
         offset="0"
         id="stop4830" />
      <stop
         style="stop-color:#6c5353;stop-opacity:1"
         offset="1"
         id="stop4832" />
    </linearGradient>
    <linearGradient
       inkscape:collect="always"
       id="linearGradient4816">
      <stop
         style="stop-color:#6c5353;stop-opacity:1;"
         offset="0"
         id="stop4812" />
      <stop
         style="stop-color:#6c5353;stop-opacity:0;"
         offset="1"
         id="stop4814" />
    </linearGradient>
    <inkscape:perspective
       sodipodi:type="inkscape:persp3d"
       inkscape:vp_x="0 : 105 : 1"
       inkscape:vp_y="0 : 1000 : 0"
       inkscape:vp_z="297 : 104.99999 : 1"
       inkscape:persp3d-origin="148.50001 : 70.000002 : 1"
       id="perspective4567" />
    <linearGradient
       inkscape:collect="always"
       xlink:href="#linearGradient4816"
       id="linearGradient4810"
       x1="666.42859"
       y1="357.98651"
       x2="662.85718"
       y2="356.55795"
       gradientUnits="userSpaceOnUse"
       gradientTransform="matrix(0.55963829,0,0,0.50174329,307.60314,141.51613)" />
    <linearGradient
       inkscape:collect="always"
       xlink:href="#linearGradient4834"
       id="linearGradient4836"
       x1="714.28571"
       y1="275.84366"
       x2="607.14288"
       y2="387.98651"
       gradientUnits="userSpaceOnUse"
       gradientTransform="matrix(0.55963829,0,0,0.50174329,307.60314,141.51613)" />
    <linearGradient
       inkscape:collect="always"
       xlink:href="#linearGradient4842"
       id="linearGradient4844"
       x1="501.42856"
       y1="232.27223"
       x2="455"
       y2="272.98651"
       gradientUnits="userSpaceOnUse"
       gradientTransform="matrix(0.55963829,0,0,0.50174329,307.60314,141.51613)" />
    <linearGradient
       inkscape:collect="always"
       xlink:href="#linearGradient4850"
       id="linearGradient4852"
       x1="806.42859"
       y1="396.55795"
       x2="770.71429"
       y2="451.55795"
       gradientUnits="userSpaceOnUse"
       gradientTransform="matrix(0.55963829,0,0,0.50174329,307.60314,141.51613)" />
    <linearGradient
       inkscape:collect="always"
       xlink:href="#linearGradient4858"
       id="linearGradient4860"
       x1="-262.84988"
       y1="-113.13977"
       x2="-273.60367"
       y2="-154.18668"
       gradientUnits="userSpaceOnUse"
       gradientTransform="matrix(0.5527731,-0.01546515,-0.02265277,0.50860847,-109.54882,-56.141984)" />
    <filter
       inkscape:collect="always"
       style="color-interpolation-filters:sRGB"
       id="filter4922"
       x="-0.01202537"
       width="1.0240507"
       y="-0.011815949"
       height="1.0236319">
      <feGaussianBlur
         inkscape:collect="always"
         stdDeviation="0.26317785"
         id="feGaussianBlur4924" />
    </filter>
    <linearGradient
       inkscape:collect="always"
       xlink:href="#linearGradient4930"
       id="linearGradient4932"
       x1="172.35713"
       y1="170.75595"
       x2="180.29465"
       y2="160.73959"
       gradientUnits="userSpaceOnUse"
       gradientTransform="matrix(0.55963829,0,0,0.50174329,81.386666,80.791147)" />
    <linearGradient
       inkscape:collect="always"
       xlink:href="#linearGradient4938"
       id="linearGradient4944"
       x1="394.28574"
       y1="180.12938"
       x2="363.57144"
       y2="191.55795"
       gradientUnits="userSpaceOnUse"
       gradientTransform="matrix(0.55963829,0,0,0.50174329,307.60314,141.51613)" />
    <linearGradient
       inkscape:collect="always"
       xlink:href="#linearGradient4958"
       id="linearGradient4960"
       x1="651.42853"
       y1="278.70081"
       x2="680.71429"
       y2="258.70081"
       gradientUnits="userSpaceOnUse"
       gradientTransform="matrix(0.55963829,0,0,0.50174329,307.60314,141.51613)" />
  </defs>
  <sodipodi:namedview
     id="base"
     pagecolor="#ffffff"
     bordercolor="#666666"
     borderopacity="1.0"
     inkscape:pageopacity="0.0"
     inkscape:pageshadow="2"
     inkscape:zoom="0.49497475"
     inkscape:cx="597.29473"
     inkscape:cy="449.65016"
     inkscape:document-units="mm"
     inkscape:current-layer="layer1"
     showgrid="false"
     units="mm"
     inkscape:showpageshadow="true"
     borderlayer="false"
     inkscape:snap-others="false"
     inkscape:object-nodes="false"
     inkscape:snap-bbox="false"
     inkscape:window-width="1850"
     inkscape:window-height="1016"
     inkscape:window-x="70"
     inkscape:window-y="27"
     inkscape:window-maximized="1" />
  <metadata
     id="metadata5">
    <rdf:RDF>
      <cc:Work
         rdf:about="">
        <dc:format>image/svg+xml</dc:format>
        <dc:type
           rdf:resource="http://purl.org/dc/dcmitype/StillImage" />
        <dc:title></dc:title>
      </cc:Work>
    </rdf:RDF>
  </metadata>
  <g
     inkscape:label="Layer 1"
     inkscape:groupmode="layer"
     id="layer1"
     transform="translate(0,-87)">
    <g
       id="g4828"
       transform="matrix(1.7868683,0,0,1.9930509,-145.42726,-161.02088)">
      <ellipse
         transform="matrix(-0.96171387,-0.27405551,0.42691674,-0.90429093,0,0)"
         ry="28.252821"
         rx="23.846741"
         style="opacity:0.70999995;fill:url(#linearGradient4860);fill-opacity:1;stroke-width:0.25191748;filter:url(#filter4922)"
         cy="-129.57759"
         cx="-276.79175"
         id="path3713" />
      <ellipse
         transform="matrix(-0.96171387,-0.27405551,0.42691674,-0.90429093,0,0)"
         ry="21.32811"
         rx="17.066784"
         cy="-129.57759"
         cx="-276.79175"
         id="path4520"
         style="opacity:0.57999998;stroke-width:0.29979506" />
      <path
         transform="matrix(0.26458333,0,0,0.26458333,0,87)"
         id="rect4563"
         d="m 587.62109,223.67969 c -27.3496,1.46766 -52.81077,17.94961 -64.59375,44.88086 l -2.71875,6.21289 c -13.26489,30.31831 -5.06316,64.43142 18,85.52148 l -0.0781,0.2207 1.1582,0.76172 c 5.06831,4.45546 10.82674,8.28352 17.20117,11.33594 L 726.59961,484.63672 A 86.575957,109.68308 42.831171 0 1 710.33203,376.05078 86.575957,109.68308 42.831171 0 1 842.59766,304.18945 86.575957,109.68308 42.831171 0 1 855.625,309.4043 l 0.24805,-0.91016 -239.59375,-80.74219 -1.35938,-0.19336 a 74.661737,70.407065 0 0 0 -20.74219,-2.94726 z m 148.91602,267.5039 4.71484,3.10743 0.24024,-0.66602 a 86.575957,109.68308 42.831171 0 1 -4.95508,-2.44141 z"
         style="opacity:1;fill:url(#linearGradient4836);fill-opacity:1;stroke-width:1.07072031"
         inkscape:connector-curvature="0" />
      <path
         transform="matrix(0.26458333,0,0,0.26458333,0,87)"
         id="path4681"
         d="m 465.29102,186.82031 c -20.86759,0.0272 -40.60371,7.99447 -51.53711,22.59766 l -2.78516,3.7168 c -13.58181,18.14048 -9.34848,40.8681 8.45117,56.72265 l -0.082,0.13477 0.91602,0.60547 c 3.9259,3.36899 8.48462,6.40307 13.62304,9.00195 l 87.45117,57.79297 c -9.10311,-19.00145 -10.16694,-41.71176 -1.01953,-62.61914 l 2.71875,-6.21289 c 10.48537,-23.96541 31.80421,-39.64618 55.64454,-43.84571 l -83.01563,-32.16015 -1.13281,-0.25977 a 63.44451,45.551985 6.5360006 0 0 -17.26953,-3.9707 l -5.45899,-1.25586 c -2.17443,-0.16856 -4.34519,-0.25086 -6.5039,-0.24805 z"
         style="opacity:1;fill:url(#linearGradient4844);fill-opacity:1;stroke-width:0.79390675"
         inkscape:connector-curvature="0" />
      <path
         transform="matrix(0.26458333,0,0,0.26458333,0,87)"
         id="path4690"
         d="m 679.15234,453.37305 a 181.57492,33.840111 0 0 0 -105.89062,30.71679 181.57492,33.840111 0 0 0 181.57422,33.83985 181.57492,33.840111 0 0 0 181.57617,-33.83985 181.57492,33.840111 0 0 0 -73.5918,-27.15625 86.575956,109.68308 42.831171 0 1 -111.39648,40.38086 86.575956,109.68308 42.831171 0 1 -9.93164,-3.68945 l -0.24024,0.66602 -4.71093,-3.10352 a 86.575956,109.68308 42.831171 0 1 -0.004,-0.004 86.575956,109.68308 42.831171 0 1 -9.9375,-6.54687 z"
         style="opacity:0.57999998;fill:#000000;stroke-width:0.96802002"
         inkscape:connector-curvature="0" />
      <path
         id="path4700"
         transform="matrix(0.26458333,0,0,0.26458333,0,87)"
         d="m 380.04297,162.30273 a 50.237287,30.993792 14.434688 0 0 -3.38672,0.004 50.237287,30.993792 14.434688 0 0 -34.93359,18.84375 50.237287,30.993792 14.434688 0 0 2.92187,18.79492 c 1.70731,4.57807 5.19461,9.14249 10.32031,13.30469 l -0.0742,0.0723 0.71094,0.4414 c 2.99995,2.35438 6.53414,4.56903 10.56641,6.58008 l 37.50781,23.35742 c -2.02825,-10.3515 0.19409,-21.08482 7.29297,-30.5664 l 2.78516,-3.7168 c 8.89145,-11.87586 23.60466,-19.36274 40.01367,-21.75977 l -11.85156,-4.81054 c -0.29391,-0.20976 -0.61556,-0.39489 -0.9668,-0.54493 l -29.81836,-12.73632 a 50.237287,30.993792 14.434688 0 0 -3.48242,-1.48829 l -2.34766,-1.00195 c -0.42162,-0.1801 -0.85764,-0.2957 -1.29687,-0.36328 a 50.237287,30.993792 14.434688 0 0 -4.38868,-1.42383 50.237287,30.993792 14.434688 0 0 -19.57226,-2.98633 z"
         style="opacity:0.95999995;fill:url(#linearGradient4944);fill-opacity:1;stroke-width:0.5539301"
         inkscape:connector-curvature="0" />
      <path
         inkscape:connector-curvature="0"
         id="path4719"
         d="m 186.26046,155.08938 a 27.763496,35.173576 42.831171 0 0 -18.68671,19.67632 27.763496,35.173576 42.831171 0 0 -0.82217,1.95492 l 6.85901,2.52801 a 27.763496,35.173576 42.831171 0 1 0.003,-0.007 l -2.85306,-1.05161 a 27.763496,35.173576 42.831171 0 1 0.82218,-1.9544 27.763496,35.173576 42.831171 0 1 18.68671,-19.67632 l 4.60179,1.55133 a 27.763496,35.173576 42.831171 0 1 0.14418,-0.0698 z"
         style="opacity:0.68999999;fill:url(#linearGradient4932);fill-opacity:1;stroke-width:0.3032901" />
      <path
         id="path4743"
         transform="matrix(0.26458333,0,0,0.26458333,0,87)"
         d="m 686.17383,251.25391 a 62.561722,79.259452 52.356128 0 0 -45.13086,35.32226 62.561722,79.259452 52.356128 0 0 -2.55664,4.03906 l 14.30078,8.17579 a 62.561722,79.259452 52.356128 0 1 0.0117,-0.0156 l -5.94922,-3.40039 a 62.561722,79.259452 52.356128 0 1 2.55664,-4.03711 62.561722,79.259452 52.356128 0 1 47.73633,-36.33008 z m 16.32226,5.58398 5.42383,2.9043 a 62.561722,79.259452 52.356128 0 1 0.3457,-0.10157 l -4.28906,-2.29492 z"
         style="opacity:0.82999998;fill:url(#linearGradient4960);fill-opacity:1;stroke-width:0.68342799"
         inkscape:connector-curvature="0" />
      <path
         id="rect4748"
         transform="matrix(0.26458333,0,0,0.26458333,0,87)"
         d="m 333.20117,144.78125 c -8.11962,-0.1381 -16.00248,4.2398 -19.96094,11.92969 -5.50741,10.69897 -1.27127,23.63536 9.49805,29.0039 l 2.77539,1.38282 c 1.13427,0.56543 2.2943,1.01812 3.46875,1.37304 l 13.8418,7.82422 a 50.237286,30.993792 14.434688 0 1 -1.10156,-15.14453 50.237286,30.993792 14.434688 0 1 29.03711,-18.39453 l -27.62891,-15.61719 -0.0898,0.16016 -0.41993,-0.20899 c -3.02887,-1.5099 -6.24268,-2.25455 -9.41992,-2.30859 z"
         style="opacity:0.95999995;fill:url(#linearGradient4810);fill-opacity:1;stroke-width:0.84628129"
         inkscape:connector-curvature="0" />
      <path
         transform="matrix(0.26458333,0,0,0.26458333,0,87)"
         inkscape:connector-curvature="0"
         id="path4788"
         d="m 768.01833,474.54751 c -20.30325,-3.76163 -34.28913,-17.11733 -39.66031,-37.87329 -6.69159,-25.8584 4.21709,-58.98504 27.16031,-82.47843 17.63541,-18.0583 38.68572,-27.82333 60.06432,-27.86325 16.92705,-0.0316 29.62243,5.53556 39.82964,17.46609 3.73557,4.36626 8.80358,14.66255 10.55657,21.44702 1.83481,7.10109 1.83132,24.2466 -0.006,32.14286 -4.55173,19.55617 -13.65709,35.79896 -28.25654,50.40601 -21.05988,21.07071 -46.87215,30.98004 -69.68756,26.75299 z"
         style="opacity:0.49000005;fill:url(#linearGradient4852);fill-opacity:1;stroke-width:0.71428573" />
    </g>
  </g>
</svg>
