<?xml version="1.0" encoding="UTF-8" standalone="no"?>
<!-- Created with Inkscape (http://www.inkscape.org/) -->

<svg
   xmlns:dc="http://purl.org/dc/elements/1.1/"
   xmlns:cc="http://creativecommons.org/ns#"
   xmlns:rdf="http://www.w3.org/1999/02/22-rdf-syntax-ns#"
   xmlns:svg="http://www.w3.org/2000/svg"
   xmlns="http://www.w3.org/2000/svg"
   xmlns:sodipodi="http://sodipodi.sourceforge.net/DTD/sodipodi-0.dtd"
   xmlns:inkscape="http://www.inkscape.org/namespaces/inkscape"
   width="90mm"
   height="90mm"
   viewBox="0 0 90 90"
   version="1.1"
   id="svg6152"
   inkscape:version="0.92.3 (2405546, 2018-03-11)"
   sodipodi:docname="bulb.svg">
  <defs
     id="defs6146">
    <clipPath
       clipPathUnits="userSpaceOnUse"
       id="clipPath558">
      <path
         d="m 1151.74,143.276 h 238.61 V -94.8604 h -238.61 z"
         id="path556"
         inkscape:connector-curvature="0" />
    </clipPath>
  </defs>
  <sodipodi:namedview
     id="base"
     pagecolor="#ffffff"
     bordercolor="#666666"
     borderopacity="1.0"
     inkscape:pageopacity="0.0"
     inkscape:pageshadow="2"
     inkscape:zoom="0.35"
     inkscape:cx="-161.42857"
     inkscape:cy="560"
     inkscape:document-units="mm"
     inkscape:current-layer="layer1"
     showgrid="false"
     inkscape:window-width="1920"
     inkscape:window-height="951"
     inkscape:window-x="0"
     inkscape:window-y="27"
     inkscape:window-maximized="1" />
  <metadata
     id="metadata6149">
    <rdf:RDF>
      <cc:Work
         rdf:about="">
        <dc:format>image/svg+xml</dc:format>
        <dc:type
           rdf:resource="http://purl.org/dc/dcmitype/StillImage" />
        <dc:title></dc:title>
      </cc:Work>
    </rdf:RDF>
  </metadata>
  <g
     inkscape:label="Layer 1"
     inkscape:groupmode="layer"
     id="layer1"
     transform="translate(0,-207)">
    <g
       transform="matrix(0.35277777,0,0,-0.35277777,-403.71927,260.25844)"
       id="g552"
       style="fill:#ff00ff">
      <g
         id="g554"
         style="fill:#ff00ff" />
      <g
         id="g586"
         style="fill:#ff00ff">
        <g
           style="opacity:0.53999299;fill:#ff00ff"
           id="g584"
           clip-path="url(#clipPath558)">
          <g
             id="g562"
             transform="translate(1184.0847,-89.2793)"
             style="fill:#ff00ff">
            <path
               inkscape:connector-curvature="0"
               id="path560"
               style="fill:#ff00ff;fill-opacity:1;fill-rule:nonzero;stroke:none"
               d="m 0,0 c -9.927,-5.307 -18.899,-4.449 -25.341,2.393 -6.176,6.566 -6.734,15.599 -1.416,24.386 -3.25,3.496 -5.298,7.596 -5.554,12.497 -0.303,5.762 1.536,10.691 5.624,14.775 6.591,6.578 12.943,13.416 19.833,19.662 8.512,7.724 12.844,17.315 14.708,28.38 1.838,10.937 3.274,21.99 7.256,32.443 7.495,19.662 19.664,35.574 39.078,44.562 23.391,10.839 46.511,8.463 68.512,-4.306 30.225,-17.54 44.171,-55.54 32.516,-88.028 C 148.449,67.894 134.877,55.081 117.479,45.941 106.755,40.306 95.043,37.917 83.22,35.886 77.04,34.827 70.895,33.481 64.843,31.86 59.112,30.329 54.274,27.058 50.082,22.855 42.756,15.517 35.408,8.2 28.057,0.882 19.866,-7.277 9.499,-7.736 0.547,-0.353 0.379,-0.209 0.173,-0.111 0,0 m 45.191,40.076 c 8.117,5.762 17.283,8.693 26.905,10.441 6.627,1.203 13.271,2.311 19.882,3.595 16.175,3.144 29.789,10.95 39.797,23.935 13.885,18.017 14.506,37.815 5.139,57.921 -12.691,27.243 -45.401,40.511 -72.709,29.701 C 48.383,159.406 38.247,147.258 31.517,132.085 27.464,122.946 26.279,113.051 24.65,103.295 22.795,92.194 20.08,81.404 13.457,72.001 13.391,71.903 13.448,71.715 13.448,71.751 24.042,61.184 34.54,50.706 45.191,40.076 M 29.229,25.231 c 1.094,1.195 2.258,2.463 3.156,3.436 C 22.239,38.788 12.005,48.999 2.078,58.902 0.967,58.007 -0.362,56.932 -1.555,55.963 8.796,45.629 18.957,35.488 29.229,25.231 M 17.139,13.219 C 6.809,23.52 -3.394,33.686 -13.604,43.868 c -3.32,-2.864 -3.366,-3.66 -0.19,-6.825 8.026,-8.007 16.053,-16.014 24.079,-24.021 3.167,-3.16 3.982,-3.115 6.854,0.197" />
          </g>
          <g
             id="g566"
             transform="translate(1349.2214,111.4966)"
             style="fill:#ff00ff">
            <path
               inkscape:connector-curvature="0"
               id="path564"
               style="fill:#ff00ff;fill-opacity:1;fill-rule:nonzero;stroke:none"
               d="m 0,0 c 4.501,-0.271 7.043,-1.81 8.446,-4.921 1.403,-3.111 1.036,-6.205 -1.3,-8.643 -5.286,-5.504 -10.683,-10.909 -16.209,-16.174 -3.22,-3.075 -8.214,-2.717 -11.255,0.426 -3.061,3.161 -3.184,8.024 -0.045,11.25 5.167,5.306 10.375,10.58 15.768,15.648 C -3.159,-1.063 -0.991,-0.501 0,0" />
          </g>
          <g
             id="g570"
             transform="translate(1281.2097,124.1509)"
             style="fill:#ff00ff">
            <path
               inkscape:connector-curvature="0"
               id="path568"
               style="fill:#ff00ff;fill-opacity:1;fill-rule:nonzero;stroke:none"
               d="m 0,0 c 0,-3.472 0.045,-6.948 -0.013,-10.42 -0.078,-4.95 -3.48,-8.517 -8.091,-8.578 -4.621,-0.057 -8.245,3.648 -8.29,8.656 -0.062,6.944 -0.062,13.892 0,20.84 0.045,5.102 3.497,8.643 8.252,8.627 4.747,-0.012 8.076,-3.546 8.133,-8.705 C 0.032,6.948 0,3.472 0,0" />
          </g>
          <g
             id="g574"
             transform="translate(1371.3269,34.3921)"
             style="fill:#ff00ff">
            <path
               inkscape:connector-curvature="0"
               id="path572"
               style="fill:#ff00ff;fill-opacity:1;fill-rule:nonzero;stroke:none"
               d="m 0,0 c 3.48,0 6.965,0.037 10.445,-0.008 5.02,-0.071 8.525,-3.383 8.574,-8.036 0.049,-4.748 -3.481,-8.253 -8.578,-8.307 -6.964,-0.078 -13.929,-0.066 -20.894,-0.004 -5.048,0.045 -8.746,3.587 -8.742,8.204 0.005,4.666 3.645,8.06 8.751,8.151 H -9.992 0" />
          </g>
          <g
             id="g578"
             transform="translate(1187.2507,103.0527)"
             style="fill:#ff00ff">
            <path
               inkscape:connector-curvature="0"
               id="path576"
               style="fill:#ff00ff;fill-opacity:1;fill-rule:nonzero;stroke:none"
               d="m 0,0 c 0.519,3.55 2.036,6.029 5.006,7.494 2.983,1.473 6.118,1.367 8.512,-0.89 5.784,-5.447 11.445,-11.041 16.887,-16.823 2.897,-3.078 2.308,-7.97 -0.74,-10.872 C 26.588,-24.021 21.828,-24.3 18.73,-21.346 13.201,-16.067 7.783,-10.663 2.521,-5.118 1.271,-3.8 0.818,-1.728 0,0" />
          </g>
          <g
             id="g582"
             transform="translate(1298.0056,46.3559)"
             style="fill:#ff00ff">
            <path
               inkscape:connector-curvature="0"
               id="path580"
               style="fill:#ff00ff;fill-opacity:1;fill-rule:nonzero;stroke:none"
               d="m 0,0 c -1.892,0.977 -3.957,1.724 -5.656,2.972 -15.616,11.486 -36.827,9.899 -50.3,-4.027 -2.337,-2.417 -4.242,-5.31 -6.031,-8.179 -2.666,-4.289 -7.648,-6.033 -11.659,-3.78 -3.924,2.208 -5.151,7.347 -2.79,11.697 15.741,29.036 55.015,37.256 81.073,16.966 C 8.45,12.682 9.524,9.165 7.816,5.343 6.36,2.077 3.802,0.571 0,0" />
          </g>
        </g>
      </g>
    </g>
  </g>
</svg>
