<?xml version="1.0" encoding="UTF-8" standalone="no"?>
<!-- Created with Inkscape (http://www.inkscape.org/) -->

<svg
   xmlns:dc="http://purl.org/dc/elements/1.1/"
   xmlns:cc="http://creativecommons.org/ns#"
   xmlns:rdf="http://www.w3.org/1999/02/22-rdf-syntax-ns#"
   xmlns:svg="http://www.w3.org/2000/svg"
   xmlns="http://www.w3.org/2000/svg"
   xmlns:sodipodi="http://sodipodi.sourceforge.net/DTD/sodipodi-0.dtd"
   xmlns:inkscape="http://www.inkscape.org/namespaces/inkscape"
   width="80mm"
   height="80mm"
   viewBox="0 0 80 80"
   version="1.1"
   id="svg5536"
   inkscape:version="0.92.3 (2405546, 2018-03-11)"
   sodipodi:docname="earth.svg">
  <defs
     id="defs5530">
    <clipPath
       clipPathUnits="userSpaceOnUse"
       id="clipPath470">
      <path
         d="m 1152.85,714.168 h 217.1 V 497.586 h -217.1 z"
         id="path468"
         inkscape:connector-curvature="0" />
    </clipPath>
  </defs>
  <sodipodi:namedview
     id="base"
     pagecolor="#ffffff"
     bordercolor="#666666"
     borderopacity="1.0"
     inkscape:pageopacity="0.0"
     inkscape:pageshadow="2"
     inkscape:zoom="0.29372884"
     inkscape:cx="353.78938"
     inkscape:cy="428.94798"
     inkscape:document-units="mm"
     inkscape:current-layer="layer1"
     showgrid="false"
     inkscape:window-width="1920"
     inkscape:window-height="951"
     inkscape:window-x="0"
     inkscape:window-y="27"
     inkscape:window-maximized="1" />
  <metadata
     id="metadata5533">
    <rdf:RDF>
      <cc:Work
         rdf:about="">
        <dc:format>image/svg+xml</dc:format>
        <dc:type
           rdf:resource="http://purl.org/dc/dcmitype/StillImage" />
        <dc:title></dc:title>
      </cc:Work>
    </rdf:RDF>
  </metadata>
  <g
     inkscape:label="Layer 1"
     inkscape:groupmode="layer"
     id="layer1"
     transform="translate(0,-217)">
    <g
       transform="matrix(0.35277777,0,0,-0.35277777,-404.92789,471.27918)"
       id="g464"
       style="fill:#ff00ff">
      <g
         id="g466"
         style="fill:#ff00ff" />
      <g
         id="g478"
         style="fill:#ff00ff">
        <g
           style="opacity:0.53999299;fill:#ff00ff"
           id="g476"
           clip-path="url(#clipPath470)">
          <g
             id="g474"
             transform="translate(1184.6589,682.5088)"
             style="fill:#ff00ff">
            <path
               inkscape:connector-curvature="0"
               id="path472"
               style="fill:#ff00ff;fill-opacity:1;fill-rule:nonzero;stroke:none"
               d="m 0,0 c 42.38,42.251 111.27,42.206 153.59,-0.099 42.335,-42.319 42.253,-110.997 -0.184,-153.214 -42.46,-42.24 -111.202,-42.132 -153.553,0.237 C -42.42,-110.785 -42.353,-42.223 0,0 m 30.355,-44.53 c -1.174,3.368 -2.27,6.477 -3.336,9.591 -0.909,2.657 -2.471,4.673 -4.931,6.206 -3.359,2.098 -4.321,5.485 -4.007,9.277 0.283,3.451 1.761,5.913 5.45,6.629 2.007,0.387 3.218,1.748 3.943,3.612 0.806,2.075 1.559,4.181 2.533,6.18 0.781,1.603 1.755,3.145 2.833,4.571 0.877,1.163 1.876,1.177 2.974,-0.065 0.753,-0.859 1.823,-1.677 2.901,-1.957 3.065,-0.799 9.789,2.211 11.471,4.893 1.983,3.171 2.529,6.697 2.663,10.511 C 46.526,14.659 40.394,13.476 34.801,10.703 7.414,-2.875 -10.106,-24.504 -17.711,-54.089 c -0.158,-0.616 -0.243,-1.254 -0.368,-1.881 1.024,-0.384 1.851,-0.768 2.72,-1.002 2.918,-0.788 4.972,-2.341 5.377,-5.557 0.165,-1.298 0.976,-1.894 2.327,-2.072 2.806,-0.367 5.402,-1.33 7.383,-3.47 0.83,-0.9 1.328,-1.855 -0.447,-2.366 -1.607,-0.463 -2.309,-1.716 -2.927,-3.185 -0.76,-1.798 -1.664,-3.574 -2.767,-5.177 -1.478,-2.146 -1.576,-3.719 0.085,-5.709 0.891,-1.065 1.845,-2.078 2.688,-3.18 1.565,-2.052 1.463,-3.927 -0.229,-5.841 -1.356,-1.538 -2.663,-3.125 -4.069,-4.613 -1.342,-1.418 -1.529,-2.982 -0.756,-4.661 0.976,-2.127 0.665,-4.08 -0.507,-6.006 -0.436,-0.717 -0.863,-1.459 -1.169,-2.239 -1.132,-2.84 -1.387,-5.663 0.043,-8.54 3.693,-7.434 8.159,-14.379 13.751,-20.5 3.481,-3.806 7.29,-7.386 11.326,-10.599 3.365,-2.68 5.651,-2.2 8.818,0.7 2.033,1.863 4.738,1.762 6.536,-0.33 1.252,-1.46 2.773,-1.954 4.66,-1.861 1.644,0.082 3.314,0.02 4.95,-0.166 2.462,-0.277 4.084,0.228 4.749,2.275 0.744,2.301 2.219,3.264 4.429,3.594 1.31,0.195 2.592,0.576 3.903,0.782 2.524,0.39 4.876,-0.172 6.729,-1.925 2.052,-1.94 4.022,-3.989 5.833,-6.153 2.202,-2.63 4.526,-5.011 7.899,-6.089 1.616,-0.517 2.411,-1.666 2.646,-3.323 0.206,-1.483 0.498,-2.959 0.829,-4.419 0.852,-3.763 2.081,-4.492 5.938,-3.851 0.713,0.119 1.794,-0.079 2.232,-0.562 0.872,-0.96 1.758,-1.013 2.899,-0.875 19.937,2.369 37.631,9.97 52.681,23.205 19.989,17.581 31.006,39.775 33.149,66.323 0.136,1.649 -0.145,2.917 -1.245,4.269 -1.068,1.307 -1.579,3.06 -2.347,4.616 -0.634,1.276 -1.208,2.601 -1.958,3.811 -0.608,0.992 -1.146,1.946 -0.334,2.977 2.035,2.571 2.487,5.536 2.981,8.704 0.605,3.884 -0.612,6.505 -3.456,8.839 -1.39,1.139 -2.689,2.445 -3.798,3.852 -2.496,3.179 -2.491,5.962 -0.269,9.348 0.249,0.372 0.486,0.943 0.382,1.33 -0.515,1.925 -0.855,3.98 -1.791,5.7 -4.928,9.077 -11.267,17.089 -18.843,24.123 -0.226,0.214 -0.52,0.355 -0.784,0.527 0.611,-3.992 2.386,-7.208 5.915,-9.113 2.097,-1.133 3.376,-2.68 3.693,-4.995 0.079,-0.587 0.045,-1.637 -0.22,-1.739 -0.716,-0.274 -1.69,-0.398 -2.364,-0.116 -0.708,0.294 -1.131,1.203 -1.783,1.711 -0.566,0.44 -1.372,1.098 -1.907,0.972 -3.252,-0.76 -5.431,0.595 -7.318,3.071 -2.183,2.86 -5.067,4.777 -8.584,5.706 -1.696,0.449 -3.139,0.144 -4.593,-0.9 -1.834,-1.31 -3.829,-2.397 -5.997,-3.73 0.283,-2.191 1.652,-4.399 3.18,-6.471 3.634,-4.936 2.264,-9.972 -0.144,-13.668 -1.33,-2.044 -2.991,-3.877 -4.587,-5.909 -3.082,1.42 -6.385,1.541 -9.826,1.264 -1.721,-0.135 -3.628,0.356 -5.247,1.045 -2.03,0.862 -3.846,2.222 -5.762,3.354 -0.52,0.305 -1.07,0.554 -1.607,0.83 -0.091,-0.158 -0.185,-0.313 -0.275,-0.471 3.314,-4.187 6.84,-8.089 12.421,-9.422 1.282,-0.307 2.694,-0.485 3.778,-1.16 2.188,-1.369 4.203,-1.036 6.081,0.285 1.749,1.237 3.315,2.736 4.922,4.159 1.123,0.997 2.092,2.194 3.297,3.063 2.159,1.562 4.715,0.949 5.112,-2.016 0.079,-0.615 0.9,-1.541 1.471,-1.62 1.913,-0.243 2.816,-1.364 3.057,-3.044 0.206,-1.476 0.356,-3.032 0.121,-4.486 -0.603,-3.718 -0.169,-7.273 0.75,-10.901 0.431,-1.705 0.337,-3.775 -0.218,-5.446 -0.732,-2.216 -0.492,-4.077 0.835,-5.768 1.175,-1.499 2.565,-2.863 4.022,-4.097 0.506,-0.432 1.565,-0.561 2.255,-0.381 2.819,0.728 4.806,2.643 6.5,4.921 1.251,1.683 1.957,1.725 3.142,-0.011 1.828,-2.682 3.529,-5.452 5.264,-8.199 0.796,-1.262 0.663,-2.377 -0.291,-3.634 -0.707,-0.937 -1.509,-2.38 -1.26,-3.334 0.422,-1.595 -0.254,-2.332 -1.189,-3.202 -1.661,-1.55 -3.529,-1.923 -5.691,-1.172 -1.497,0.523 -3.048,0.901 -4.576,1.342 -0.082,-0.133 -0.164,-0.266 -0.249,-0.401 2.298,-2.75 2.879,-6.124 3.784,-9.422 1.613,-5.884 0.611,-11.022 -3.41,-15.672 -1.758,-2.03 -2.816,-4.481 -1.305,-7.152 0.866,-1.524 0.255,-2.049 -1.124,-2.368 -5.232,-1.2 -10.035,-0.136 -14.101,3.266 -2.313,1.934 -4.712,3.538 -7.526,4.537 -1.78,0.635 -3.11,1.697 -4.05,3.38 -0.792,1.406 -1.707,2.815 -2.838,3.95 -3.467,3.464 -7.413,5.965 -12.654,5.327 -2.801,-0.338 -5.337,0.509 -7.867,1.632 -2.524,1.124 -5.1,2.208 -7.757,2.939 -4.522,1.242 -6.526,0.317 -8.762,-3.822 -1.93,-3.569 -4.42,-6.613 -7.811,-8.86 -2.815,-1.861 -5.646,-3.713 -8.558,-5.41 -2.385,-1.386 -5.026,-1.66 -7.717,-1.013 -1.162,0.277 -2.216,0.804 -2.268,2.216 -0.067,1.988 -1.406,2.99 -2.776,4.17 -2.74,2.372 -5.298,4.958 -7.879,7.51 -0.399,0.393 -0.495,1.081 -0.77,1.615 -0.783,1.527 -1.664,3.01 -2.371,4.574 -0.75,1.663 -1.993,3.445 -1.859,5.079 0.212,2.651 -0.154,5.003 -1.209,7.349 -0.589,1.31 -0.43,2.445 0.438,3.702 0.938,1.358 1.673,2.927 2.143,4.508 0.223,0.754 -0.116,2.042 -0.685,2.541 -0.467,0.415 -1.701,0.201 -2.493,-0.053 -0.96,-0.302 -1.831,-0.907 -2.7,-1.446 -0.92,-0.567 -1.469,-0.285 -2.111,0.525 -1.599,2.019 -3.224,4.035 -5.003,5.896 -2.222,2.323 -2.158,2.834 0.469,4.63 1.129,0.771 2.476,1.894 2.756,3.083 0.467,1.973 0.151,4.131 0.158,6.11 -2.028,-0.477 -3.738,-1.132 -5.469,-1.206 -1.532,-0.065 -2.505,-0.562 -3.261,-1.795 -0.45,-0.738 -0.981,-1.426 -1.508,-2.177 -4.856,5.364 -5.431,12.154 -1.546,19.582 2.211,-1.098 4.43,-2.222 6.668,-3.303 0.631,-0.307 1.333,-0.748 1.976,-0.711 2.326,0.135 4.64,0.451 7.055,0.708 m 9.806,-14.232 c 2.926,0.61 5.027,2.23 6.838,4.348 2.012,2.363 4.46,3.371 7.584,2.343 1.191,-0.392 2.471,-0.556 3.722,-0.737 2.467,-0.356 4.23,0.489 5.549,2.747 1.481,2.533 3.187,4.975 5.075,7.22 1.752,2.086 4.012,2.698 6.851,1.792 1.933,-0.612 4.16,-0.672 6.204,-0.463 2.106,0.215 3.328,1.92 3.354,3.883 0.033,2.428 -1.203,4.367 -2.59,6.208 -0.189,0.251 -0.75,0.347 -1.127,0.322 -3.042,-0.223 -5.988,-0.774 -8.504,-2.674 -4.242,-3.199 -8.584,-6.22 -13.513,-8.32 -0.841,-0.359 -1.727,-1.073 -2.137,-1.861 -0.696,-1.344 -1.582,-1.194 -2.816,-1.109 -1.755,0.112 -3.551,-0.071 -5.295,-0.342 -0.985,-0.153 -1.981,-0.616 -2.819,-1.169 -0.781,-0.519 -1.488,-1.259 -2.009,-2.05 -1.07,-1.62 -1.684,-3.678 -3.053,-4.938 -1.716,-1.575 -1.959,-3.1 -1.314,-5.2 m -11.232,39.298 c -0.034,-0.198 -0.069,-0.39 -0.1,-0.585 2.599,-0.547 4.653,-1.801 4.469,-4.604 -0.15,-2.313 -0.9,-4.586 -1.364,-6.765 0.399,0.674 0.852,1.51 1.373,2.295 0.662,0.999 1.169,2.312 2.114,2.866 2.369,1.386 2.915,3.811 3.832,5.986 0.619,1.465 -0.75,3.362 -2.016,3.06 -2.79,-0.666 -5.544,-1.494 -8.308,-2.253 M 67.217,16.474 C 64.754,15.915 62.284,15.41 59.842,14.774 58.39,14.399 57.221,13.605 56.816,11.988 56.338,10.071 55.771,8.179 55.44,6.99 c 0.779,-2.306 1.373,-4.073 2.067,-6.132 0.883,6.844 4.514,11.658 9.71,15.616" />
          </g>
        </g>
      </g>
    </g>
  </g>
</svg>
