<?xml version="1.0" encoding="UTF-8" standalone="no"?>
<!-- Created with Inkscape (http://www.inkscape.org/) -->

<svg
   xmlns:dc="http://purl.org/dc/elements/1.1/"
   xmlns:cc="http://creativecommons.org/ns#"
   xmlns:rdf="http://www.w3.org/1999/02/22-rdf-syntax-ns#"
   xmlns:svg="http://www.w3.org/2000/svg"
   xmlns="http://www.w3.org/2000/svg"
   xmlns:sodipodi="http://sodipodi.sourceforge.net/DTD/sodipodi-0.dtd"
   xmlns:inkscape="http://www.inkscape.org/namespaces/inkscape"
   width="50mm"
   height="80mm"
   viewBox="0 0 50 80"
   version="1.1"
   id="svg4926"
   inkscape:version="0.92.3 (2405546, 2018-03-11)"
   sodipodi:docname="hand.svg">
  <defs
     id="defs4920">
    <clipPath
       clipPathUnits="userSpaceOnUse"
       id="clipPath738">
      <path
         d="m 2098.53,1595.37 h 130.42 v -211.28 h -130.42 z"
         id="path736"
         inkscape:connector-curvature="0" />
    </clipPath>
  </defs>
  <sodipodi:namedview
     id="base"
     pagecolor="#ffffff"
     bordercolor="#666666"
     borderopacity="1.0"
     inkscape:pageopacity="0.0"
     inkscape:pageshadow="2"
     inkscape:zoom="0.35"
     inkscape:cx="-161.42857"
     inkscape:cy="560"
     inkscape:document-units="mm"
     inkscape:current-layer="layer1"
     showgrid="false"
     inkscape:window-width="1920"
     inkscape:window-height="951"
     inkscape:window-x="0"
     inkscape:window-y="27"
     inkscape:window-maximized="1" />
  <metadata
     id="metadata4923">
    <rdf:RDF>
      <cc:Work
         rdf:about="">
        <dc:format>image/svg+xml</dc:format>
        <dc:type
           rdf:resource="http://purl.org/dc/dcmitype/StillImage" />
        <dc:title></dc:title>
      </cc:Work>
    </rdf:RDF>
  </metadata>
  <g
     inkscape:label="Layer 1"
     inkscape:groupmode="layer"
     id="layer1"
     transform="translate(0,-217)">
    <g
       transform="matrix(0.35277777,0,0,-0.35277777,-737.99523,781.9497)"
       id="g732"
       style="fill:#ff00ff">
      <g
         id="g734"
         style="fill:#ff00ff" />
      <g
         id="g750"
         style="fill:#ff00ff">
        <g
           style="opacity:0.53999299;fill:#ff00ff"
           id="g748"
           clip-path="url(#clipPath738)">
          <g
             id="g742"
             transform="translate(2122.2957,1547.2493)"
             style="fill:#ff00ff">
            <path
               inkscape:connector-curvature="0"
               id="path740"
               style="fill:#ff00ff;fill-opacity:1;fill-rule:nonzero;stroke:none"
               d="m 0,0 c 0,5.914 -0.053,12.085 0.014,18.253 0.091,8.604 5.47,15.492 13.605,17.57 3.327,0.848 5.54,0.75 10.799,-0.495 3.081,7.894 8.548,12.83 17.377,12.795 8.73,-0.031 14.141,-4.951 17.235,-12.89 3.564,1.129 7.116,1.554 10.75,0.629 8.227,-2.095 13.602,-9.079 13.63,-17.975 0.042,-15.376 0.011,-30.753 0.011,-46.133 v -2.131 c 3.014,0 5.89,0.32 8.674,-0.06 8.452,-1.146 14.517,-8.217 14.532,-16.684 0.024,-16.857 0.063,-33.714 -0.015,-50.567 -0.147,-32.989 -23.583,-59.931 -56.281,-64.797 -34.04,-5.067 -67.38,19.174 -72.991,53.176 -0.662,4.022 -1.029,8.136 -1.043,12.212 -0.092,26.122 -0.057,52.244 -0.043,78.369 0.008,9.695 5.541,17.012 14.466,18.644 C -6.376,0.447 -3.296,0 0,0 m 71.793,-29.825 v 20.75 c 0,8.931 -0.015,17.862 0.011,26.79 0.01,2.834 -1.082,4.993 -3.723,6.125 -3.934,1.688 -7.94,-1.332 -7.944,-5.96 -0.011,-19.473 -0.003,-38.946 -0.003,-58.419 0,-5.643 0.02,-11.283 -0.011,-16.923 -0.018,-3.102 -1.822,-5.419 -4.6,-6.059 -4.191,-0.967 -7.503,1.909 -7.503,6.558 -0.008,28.538 -0.004,57.076 -0.004,85.613 0,0.672 0.032,1.347 -0.018,2.015 -0.239,3.193 -2.922,5.556 -6.126,5.415 -3.323,-0.147 -5.519,-2.77 -5.519,-6.66 -0.007,-28.404 -0.003,-56.808 -0.003,-85.212 0,-0.739 0.02,-1.48 -0.022,-2.215 -0.201,-3.71 -3.44,-6.249 -7.102,-5.581 -3.211,0.584 -4.991,2.972 -4.991,6.769 -0.006,24.508 -0.004,49.02 -0.004,73.528 0,0.739 0.025,1.48 -0.028,2.216 -0.204,2.83 -2.53,5.133 -5.378,5.365 -2.577,0.208 -5.273,-1.656 -5.922,-4.237 -0.257,-1.023 -0.289,-2.127 -0.289,-3.193 -0.013,-26.994 -0.01,-53.988 -0.013,-80.979 0,-0.875 0.02,-1.751 -0.053,-2.619 -0.315,-3.534 -3.423,-5.915 -6.941,-5.338 -3.313,0.545 -5.114,2.922 -5.118,6.864 -0.013,15.376 -0.003,30.756 -0.01,46.133 0,0.805 0.025,1.617 -0.063,2.412 -0.269,2.363 -1.604,3.942 -3.786,4.782 -2.156,0.833 -4.092,0.313 -5.805,-1.164 -1.691,-1.459 -1.931,-3.4 -1.931,-5.489 0.024,-26.189 -0.032,-52.374 0.067,-78.563 0.014,-4.001 0.285,-8.094 1.145,-11.987 6.267,-28.313 32.458,-45.774 61.287,-41.041 23.265,3.818 42.644,25.032 43.828,48.492 0.529,10.45 0.258,20.943 0.31,31.414 0.035,7.117 -0.014,14.237 0.014,21.354 0.011,2.715 -0.909,4.881 -3.446,6.101 -3.92,1.881 -8.157,-0.974 -8.174,-5.545 -0.039,-9.536 0,-19.072 -0.022,-28.605 -0.003,-3.08 -1.43,-5.306 -3.887,-6.234 -4.145,-1.558 -8.202,1.357 -8.209,5.988 -0.029,15.778 -0.011,31.559 -0.014,47.339" />
          </g>
          <g
             id="g746"
             transform="translate(2154.3992,1467.9387)"
             style="fill:#ff00ff">
            <path
               inkscape:connector-curvature="0"
               id="path744"
               style="fill:#ff00ff;fill-opacity:1;fill-rule:nonzero;stroke:none"
               d="m 0,0 c 1.786,-0.527 5.089,-1.551 8.427,-2.451 0.853,-0.228 1.981,-0.387 2.703,-0.024 9.746,4.884 20.926,2.394 27.697,-6.263 6.541,-8.368 6.422,-20.412 -0.843,-28.151 -7.725,-8.228 -15.875,-16.062 -23.911,-23.998 -2.287,-2.261 -6.157,-2.265 -8.441,-0.007 -8.036,7.932 -16.245,15.717 -23.89,24.016 -6.312,6.853 -7.352,15.172 -3.524,23.632 C -17.958,-4.796 -11.05,-0.454 0,0 m 9.671,-47.448 c 6.619,6.48 13.231,12.771 19.6,19.297 2.351,2.409 2.623,5.7 1.738,8.914 -1.974,7.141 -10.665,9.673 -16.351,4.718 -1.991,-1.733 -4.081,-2.693 -6.608,-1.8 -1.22,0.433 -2.298,1.34 -3.345,2.156 -4.166,3.245 -10.186,2.844 -13.746,-0.964 -3.493,-3.738 -3.697,-9.873 -0.113,-13.562 6.178,-6.357 12.551,-12.528 18.825,-18.759" />
          </g>
        </g>
      </g>
    </g>
  </g>
</svg>
